<?xml version="1.0" encoding="us-ascii" standalone="no"?><svg xmlns="http://www.w3.org/2000/svg" xmlns:xlink="http://www.w3.org/1999/xlink" contentStyleType="text/css" height="2137px" preserveAspectRatio="none" style="width:762px;height:2137px;background:#FFFFFF;" version="1.1" viewBox="0 0 762 2137" width="762px" zoomAndPan="magnify"><defs/><g><!--class User--><g id="elem_User"><rect codeLine="4" fill="#F1F1F1" height="224.0938" id="User" rx="2.5" ry="2.5" style="stroke:#181818;stroke-width:0.5;" width="152" x="233" y="7"/><ellipse cx="289.75" cy="23" fill="#A9DCDF" rx="11" ry="11" style="stroke:#181818;stroke-width:1.0;"/><path d="M291.9375,24.7656 L287.7969,24.7656 L287.375,25.7969 L287.7969,25.7969 Q288.4063,25.7969 288.6719,26.0313 Q288.9375,26.2656 288.9375,26.6563 Q288.9375,27.0313 288.6719,27.2656 Q288.4063,27.5 287.7969,27.5 L285.5,27.5 Q284.8906,27.5 284.6328,27.2656 Q284.375,27.0313 284.375,26.6406 Q284.375,26.2656 284.6484,26.0234 Q284.9219,25.7813 285.5469,25.7969 L288.2188,19.1406 L287.1094,19.1406 Q286.5,19.1406 286.2344,18.9063 Q285.9688,18.6719 285.9688,18.2813 Q285.9688,17.9063 286.2344,17.6719 Q286.5,17.4375 287.1094,17.4375 L290.7813,17.4375 L294.1719,25.7969 Q294.7656,25.7969 294.9531,25.9375 Q295.3438,26.2031 295.3438,26.6563 Q295.3438,27.0313 295.0859,27.2656 Q294.8281,27.5 294.2188,27.5 L291.9219,27.5 Q291.3125,27.5 291.0469,27.2656 Q290.7813,27.0313 290.7813,26.6406 Q290.7813,26.2656 291.0469,26.0313 Q291.3125,25.7969 291.9219,25.7969 L292.3438,25.7969 L291.9375,24.7656 Z M291.2188,23.0625 L289.8594,19.6875 L288.4844,23.0625 L291.2188,23.0625 Z " fill="#000000"/><text fill="#000000" font-family="sans-serif" font-size="14" font-style="italic" lengthAdjust="spacing" textLength="30" x="310.25" y="28.7285">User</text><line style="stroke:#181818;stroke-width:0.5;" x1="234" x2="384" y1="39" y2="39"/><ellipse cx="244" cy="53.3047" fill="none" rx="3" ry="3" style="stroke:#038048;stroke-width:1.0;"/><text fill="#000000" font-family="sans-serif" font-size="14" lengthAdjust="spacing" textLength="52" x="253" y="57.5332">String id</text><ellipse cx="244" cy="70.9141" fill="none" rx="3" ry="3" style="stroke:#038048;stroke-width:1.0;"/><text fill="#000000" font-family="sans-serif" font-size="14" lengthAdjust="spacing" textLength="74" x="253" y="75.1426">String email</text><ellipse cx="244" cy="88.5234" fill="none" rx="3" ry="3" style="stroke:#038048;stroke-width:1.0;"/><text fill="#000000" font-family="sans-serif" font-size="14" lengthAdjust="spacing" textLength="101" x="253" y="92.752">String password</text><ellipse cx="244" cy="106.1328" fill="none" rx="3" ry="3" style="stroke:#038048;stroke-width:1.0;"/><text fill="#000000" font-family="sans-serif" font-size="14" lengthAdjust="spacing" textLength="68" x="253" y="110.3613">String nom</text><ellipse cx="244" cy="123.7422" fill="none" rx="3" ry="3" style="stroke:#038048;stroke-width:1.0;"/><text fill="#000000" font-family="sans-serif" font-size="14" lengthAdjust="spacing" textLength="89" x="253" y="127.9707">String prenom</text><ellipse cx="244" cy="141.3516" fill="none" rx="3" ry="3" style="stroke:#038048;stroke-width:1.0;"/><text fill="#000000" font-family="sans-serif" font-size="14" lengthAdjust="spacing" textLength="65" x="253" y="145.5801">String role</text><ellipse cx="244" cy="158.9609" fill="none" rx="3" ry="3" style="stroke:#038048;stroke-width:1.0;"/><text fill="#000000" font-family="sans-serif" font-size="14" lengthAdjust="spacing" textLength="126" x="253" y="163.1895">Date dateInscription</text><line style="stroke:#181818;stroke-width:0.5;" x1="234" x2="384" y1="170.2656" y2="170.2656"/><ellipse cx="244" cy="184.5703" fill="#84BE84" rx="3" ry="3" style="stroke:#038048;stroke-width:1.0;"/><text fill="#000000" font-family="sans-serif" font-size="14" lengthAdjust="spacing" textLength="40" x="253" y="188.7988">login()</text><ellipse cx="244" cy="202.1797" fill="#84BE84" rx="3" ry="3" style="stroke:#038048;stroke-width:1.0;"/><text fill="#000000" font-family="sans-serif" font-size="14" lengthAdjust="spacing" textLength="58" x="253" y="206.4082">register()</text><ellipse cx="244" cy="219.7891" fill="#84BE84" rx="3" ry="3" style="stroke:#038048;stroke-width:1.0;"/><text fill="#000000" font-family="sans-serif" font-size="14" lengthAdjust="spacing" textLength="94" x="253" y="224.0176">updateProfile()</text></g><!--class Recruteur--><g id="elem_Recruteur"><rect codeLine="17" fill="#F1F1F1" height="136.0469" id="Recruteur" rx="2.5" ry="2.5" style="stroke:#181818;stroke-width:0.5;" width="179" x="348.5" y="292"/><ellipse cx="402.25" cy="308" fill="#ADD1B2" rx="11" ry="11" style="stroke:#181818;stroke-width:1.0;"/><path d="M405.0156,303.875 Q405.1719,303.6563 405.3594,303.5469 Q405.5469,303.4375 405.7656,303.4375 Q406.1406,303.4375 406.375,303.6953 Q406.6094,303.9531 406.6094,304.5625 L406.6094,306.0156 Q406.6094,306.625 406.375,306.8906 Q406.1406,307.1563 405.7656,307.1563 Q405.4219,307.1563 405.2188,306.9531 Q405.0156,306.7656 404.9063,306.25 Q404.8594,305.8906 404.6719,305.7031 Q404.3438,305.3281 403.7344,305.1094 Q403.125,304.8906 402.5,304.8906 Q401.7344,304.8906 401.1016,305.2188 Q400.4688,305.5469 399.9766,306.2969 Q399.4844,307.0469 399.4844,308.0781 L399.4844,309.1719 Q399.4844,310.4063 400.375,311.2266 Q401.2656,312.0469 402.8594,312.0469 Q403.7969,312.0469 404.4531,311.7969 Q404.8438,311.6406 405.2656,311.2031 Q405.5313,310.9375 405.6797,310.8594 Q405.8281,310.7813 406.0313,310.7813 Q406.3594,310.7813 406.6172,311.0391 Q406.875,311.2969 406.875,311.6406 Q406.875,311.9844 406.5313,312.3906 Q406.0313,312.9688 405.2344,313.2969 Q404.1563,313.75 402.8594,313.75 Q401.3438,313.75 400.1406,313.125 Q399.1563,312.625 398.4688,311.5547 Q397.7813,310.4844 397.7813,309.2031 L397.7813,308.0469 Q397.7813,306.7188 398.3984,305.5703 Q399.0156,304.4219 400.1094,303.8047 Q401.2031,303.1875 402.4375,303.1875 Q403.1719,303.1875 403.8203,303.3516 Q404.4688,303.5156 405.0156,303.875 Z " fill="#000000"/><text fill="#000000" font-family="sans-serif" font-size="14" lengthAdjust="spacing" textLength="63" x="422.75" y="313.7285">Recruteur</text><line style="stroke:#181818;stroke-width:0.5;" x1="349.5" x2="526.5" y1="324" y2="324"/><ellipse cx="359.5" cy="338.3047" fill="none" rx="3" ry="3" style="stroke:#038048;stroke-width:1.0;"/><text fill="#000000" font-family="sans-serif" font-size="14" lengthAdjust="spacing" textLength="105" x="368.5" y="342.5332">String entreprise</text><ellipse cx="359.5" cy="355.9141" fill="none" rx="3" ry="3" style="stroke:#038048;stroke-width:1.0;"/><text fill="#000000" font-family="sans-serif" font-size="14" lengthAdjust="spacing" textLength="76" x="368.5" y="360.1426">String poste</text><line style="stroke:#181818;stroke-width:0.5;" x1="349.5" x2="526.5" y1="367.2188" y2="367.2188"/><ellipse cx="359.5" cy="381.5234" fill="#84BE84" rx="3" ry="3" style="stroke:#038048;stroke-width:1.0;"/><text fill="#000000" font-family="sans-serif" font-size="14" lengthAdjust="spacing" textLength="75" x="368.5" y="385.752">creerOffre()</text><ellipse cx="359.5" cy="399.1328" fill="#84BE84" rx="3" ry="3" style="stroke:#038048;stroke-width:1.0;"/><text fill="#000000" font-family="sans-serif" font-size="14" lengthAdjust="spacing" textLength="83" x="368.5" y="403.3613">gererOffres()</text><ellipse cx="359.5" cy="416.7422" fill="#84BE84" rx="3" ry="3" style="stroke:#038048;stroke-width:1.0;"/><text fill="#000000" font-family="sans-serif" font-size="14" lengthAdjust="spacing" textLength="153" x="368.5" y="420.9707">consulterCandidatures()</text></g><!--class Candidat--><g id="elem_Candidat"><rect codeLine="25" fill="#F1F1F1" height="171.2656" id="Candidat" rx="2.5" ry="2.5" style="stroke:#181818;stroke-width:0.5;" width="159" x="186.5" y="458"/><ellipse cx="233.25" cy="474" fill="#ADD1B2" rx="11" ry="11" style="stroke:#181818;stroke-width:1.0;"/><path d="M236.0156,469.875 Q236.1719,469.6563 236.3594,469.5469 Q236.5469,469.4375 236.7656,469.4375 Q237.1406,469.4375 237.375,469.6953 Q237.6094,469.9531 237.6094,470.5625 L237.6094,472.0156 Q237.6094,472.625 237.375,472.8906 Q237.1406,473.1563 236.7656,473.1563 Q236.4219,473.1563 236.2188,472.9531 Q236.0156,472.7656 235.9063,472.25 Q235.8594,471.8906 235.6719,471.7031 Q235.3438,471.3281 234.7344,471.1094 Q234.125,470.8906 233.5,470.8906 Q232.7344,470.8906 232.1016,471.2188 Q231.4688,471.5469 230.9766,472.2969 Q230.4844,473.0469 230.4844,474.0781 L230.4844,475.1719 Q230.4844,476.4063 231.375,477.2266 Q232.2656,478.0469 233.8594,478.0469 Q234.7969,478.0469 235.4531,477.7969 Q235.8438,477.6406 236.2656,477.2031 Q236.5313,476.9375 236.6797,476.8594 Q236.8281,476.7813 237.0313,476.7813 Q237.3594,476.7813 237.6172,477.0391 Q237.875,477.2969 237.875,477.6406 Q237.875,477.9844 237.5313,478.3906 Q237.0313,478.9688 236.2344,479.2969 Q235.1563,479.75 233.8594,479.75 Q232.3438,479.75 231.1406,479.125 Q230.1563,478.625 229.4688,477.5547 Q228.7813,476.4844 228.7813,475.2031 L228.7813,474.0469 Q228.7813,472.7188 229.3984,471.5703 Q230.0156,470.4219 231.1094,469.8047 Q232.2031,469.1875 233.4375,469.1875 Q234.1719,469.1875 234.8203,469.3516 Q235.4688,469.5156 236.0156,469.875 Z " fill="#000000"/><text fill="#000000" font-family="sans-serif" font-size="14" lengthAdjust="spacing" textLength="57" x="253.75" y="479.7285">Candidat</text><line style="stroke:#181818;stroke-width:0.5;" x1="187.5" x2="344.5" y1="490" y2="490"/><ellipse cx="197.5" cy="504.3047" fill="none" rx="3" ry="3" style="stroke:#038048;stroke-width:1.0;"/><text fill="#000000" font-family="sans-serif" font-size="14" lengthAdjust="spacing" textLength="133" x="206.5" y="508.5332">String[] competences</text><ellipse cx="197.5" cy="521.9141" fill="none" rx="3" ry="3" style="stroke:#038048;stroke-width:1.0;"/><text fill="#000000" font-family="sans-serif" font-size="14" lengthAdjust="spacing" textLength="125" x="206.5" y="526.1426">String[] experiences</text><ellipse cx="197.5" cy="539.5234" fill="none" rx="3" ry="3" style="stroke:#038048;stroke-width:1.0;"/><text fill="#000000" font-family="sans-serif" font-size="14" lengthAdjust="spacing" textLength="45" x="206.5" y="543.752">URL cv</text><line style="stroke:#181818;stroke-width:0.5;" x1="187.5" x2="344.5" y1="550.8281" y2="550.8281"/><ellipse cx="197.5" cy="565.1328" fill="#84BE84" rx="3" ry="3" style="stroke:#038048;stroke-width:1.0;"/><text fill="#000000" font-family="sans-serif" font-size="14" lengthAdjust="spacing" textLength="93" x="206.5" y="569.3613">postulerOffre()</text><ellipse cx="197.5" cy="582.7422" fill="#84BE84" rx="3" ry="3" style="stroke:#038048;stroke-width:1.0;"/><text fill="#000000" font-family="sans-serif" font-size="14" lengthAdjust="spacing" textLength="81" x="206.5" y="586.9707">passerTest()</text><ellipse cx="197.5" cy="600.3516" fill="#84BE84" rx="3" ry="3" style="stroke:#038048;stroke-width:1.0;"/><text fill="#000000" font-family="sans-serif" font-size="14" lengthAdjust="spacing" textLength="131" x="206.5" y="604.5801">passerEntretienBot()</text><ellipse cx="197.5" cy="617.9609" fill="#84BE84" rx="3" ry="3" style="stroke:#038048;stroke-width:1.0;"/><text fill="#000000" font-family="sans-serif" font-size="14" lengthAdjust="spacing" textLength="127" x="206.5" y="622.1895">consulterResultats()</text></g><!--class Offre--><g id="elem_Offre"><rect codeLine="36" fill="#F1F1F1" height="241.7031" id="Offre" rx="2.5" ry="2.5" style="stroke:#181818;stroke-width:0.5;" width="218" x="335" y="659"/><ellipse cx="423.75" cy="675" fill="#ADD1B2" rx="11" ry="11" style="stroke:#181818;stroke-width:1.0;"/><path d="M426.5156,670.875 Q426.6719,670.6563 426.8594,670.5469 Q427.0469,670.4375 427.2656,670.4375 Q427.6406,670.4375 427.875,670.6953 Q428.1094,670.9531 428.1094,671.5625 L428.1094,673.0156 Q428.1094,673.625 427.875,673.8906 Q427.6406,674.1563 427.2656,674.1563 Q426.9219,674.1563 426.7188,673.9531 Q426.5156,673.7656 426.4063,673.25 Q426.3594,672.8906 426.1719,672.7031 Q425.8438,672.3281 425.2344,672.1094 Q424.625,671.8906 424,671.8906 Q423.2344,671.8906 422.6016,672.2188 Q421.9688,672.5469 421.4766,673.2969 Q420.9844,674.0469 420.9844,675.0781 L420.9844,676.1719 Q420.9844,677.4063 421.875,678.2266 Q422.7656,679.0469 424.3594,679.0469 Q425.2969,679.0469 425.9531,678.7969 Q426.3438,678.6406 426.7656,678.2031 Q427.0313,677.9375 427.1797,677.8594 Q427.3281,677.7813 427.5313,677.7813 Q427.8594,677.7813 428.1172,678.0391 Q428.375,678.2969 428.375,678.6406 Q428.375,678.9844 428.0313,679.3906 Q427.5313,679.9688 426.7344,680.2969 Q425.6563,680.75 424.3594,680.75 Q422.8438,680.75 421.6406,680.125 Q420.6563,679.625 419.9688,678.5547 Q419.2813,677.4844 419.2813,676.2031 L419.2813,675.0469 Q419.2813,673.7188 419.8984,672.5703 Q420.5156,671.4219 421.6094,670.8047 Q422.7031,670.1875 423.9375,670.1875 Q424.6719,670.1875 425.3203,670.3516 Q425.9688,670.5156 426.5156,670.875 Z " fill="#000000"/><text fill="#000000" font-family="sans-serif" font-size="14" lengthAdjust="spacing" textLength="32" x="444.25" y="680.7285">Offre</text><line style="stroke:#181818;stroke-width:0.5;" x1="336" x2="552" y1="691" y2="691"/><ellipse cx="346" cy="705.3047" fill="none" rx="3" ry="3" style="stroke:#038048;stroke-width:1.0;"/><text fill="#000000" font-family="sans-serif" font-size="14" lengthAdjust="spacing" textLength="52" x="355" y="709.5332">String id</text><ellipse cx="346" cy="722.9141" fill="none" rx="3" ry="3" style="stroke:#038048;stroke-width:1.0;"/><text fill="#000000" font-family="sans-serif" font-size="14" lengthAdjust="spacing" textLength="65" x="355" y="727.1426">String titre</text><ellipse cx="346" cy="740.5234" fill="none" rx="3" ry="3" style="stroke:#038048;stroke-width:1.0;"/><text fill="#000000" font-family="sans-serif" font-size="14" lengthAdjust="spacing" textLength="110" x="355" y="744.752">String description</text><ellipse cx="346" cy="758.1328" fill="none" rx="3" ry="3" style="stroke:#038048;stroke-width:1.0;"/><text fill="#000000" font-family="sans-serif" font-size="14" lengthAdjust="spacing" textLength="192" x="355" y="762.3613">String[] competencesRequises</text><ellipse cx="346" cy="775.7422" fill="none" rx="3" ry="3" style="stroke:#038048;stroke-width:1.0;"/><text fill="#000000" font-family="sans-serif" font-size="14" lengthAdjust="spacing" textLength="153" x="355" y="779.9707">String niveauExperience</text><ellipse cx="346" cy="793.3516" fill="none" rx="3" ry="3" style="stroke:#038048;stroke-width:1.0;"/><text fill="#000000" font-family="sans-serif" font-size="14" lengthAdjust="spacing" textLength="131" x="355" y="797.5801">Date datePublication</text><ellipse cx="346" cy="810.9609" fill="none" rx="3" ry="3" style="stroke:#038048;stroke-width:1.0;"/><text fill="#000000" font-family="sans-serif" font-size="14" lengthAdjust="spacing" textLength="76" x="355" y="815.1895">String statut</text><line style="stroke:#181818;stroke-width:0.5;" x1="336" x2="552" y1="822.2656" y2="822.2656"/><ellipse cx="346" cy="836.5703" fill="#84BE84" rx="3" ry="3" style="stroke:#038048;stroke-width:1.0;"/><text fill="#000000" font-family="sans-serif" font-size="14" lengthAdjust="spacing" textLength="82" x="355" y="840.7988">createOffre()</text><ellipse cx="346" cy="854.1797" fill="#84BE84" rx="3" ry="3" style="stroke:#038048;stroke-width:1.0;"/><text fill="#000000" font-family="sans-serif" font-size="14" lengthAdjust="spacing" textLength="86" x="355" y="858.4082">updateOffre()</text><ellipse cx="346" cy="871.7891" fill="#84BE84" rx="3" ry="3" style="stroke:#038048;stroke-width:1.0;"/><text fill="#000000" font-family="sans-serif" font-size="14" lengthAdjust="spacing" textLength="81" x="355" y="876.0176">deleteOffre()</text><ellipse cx="346" cy="889.3984" fill="#84BE84" rx="3" ry="3" style="stroke:#038048;stroke-width:1.0;"/><text fill="#000000" font-family="sans-serif" font-size="14" lengthAdjust="spacing" textLength="156" x="355" y="893.627">generateTechnicalTest()</text></g><!--class Candidature--><g id="elem_Candidature"><rect codeLine="50" fill="#F1F1F1" height="206.4844" id="Candidature" rx="2.5" ry="2.5" style="stroke:#181818;stroke-width:0.5;" width="158" x="205" y="979"/><ellipse cx="241.6" cy="995" fill="#ADD1B2" rx="11" ry="11" style="stroke:#181818;stroke-width:1.0;"/><path d="M244.3656,990.875 Q244.5219,990.6563 244.7094,990.5469 Q244.8969,990.4375 245.1156,990.4375 Q245.4906,990.4375 245.725,990.6953 Q245.9594,990.9531 245.9594,991.5625 L245.9594,993.0156 Q245.9594,993.625 245.725,993.8906 Q245.4906,994.1563 245.1156,994.1563 Q244.7719,994.1563 244.5688,993.9531 Q244.3656,993.7656 244.2563,993.25 Q244.2094,992.8906 244.0219,992.7031 Q243.6938,992.3281 243.0844,992.1094 Q242.475,991.8906 241.85,991.8906 Q241.0844,991.8906 240.4516,992.2188 Q239.8188,992.5469 239.3266,993.2969 Q238.8344,994.0469 238.8344,995.0781 L238.8344,996.1719 Q238.8344,997.4063 239.725,998.2266 Q240.6156,999.0469 242.2094,999.0469 Q243.1469,999.0469 243.8031,998.7969 Q244.1938,998.6406 244.6156,998.2031 Q244.8813,997.9375 245.0297,997.8594 Q245.1781,997.7813 245.3813,997.7813 Q245.7094,997.7813 245.9672,998.0391 Q246.225,998.2969 246.225,998.6406 Q246.225,998.9844 245.8813,999.3906 Q245.3813,999.9688 244.5844,1000.2969 Q243.5063,1000.75 242.2094,1000.75 Q240.6938,1000.75 239.4906,1000.125 Q238.5063,999.625 237.8188,998.5547 Q237.1313,997.4844 237.1313,996.2031 L237.1313,995.0469 Q237.1313,993.7188 237.7484,992.5703 Q238.3656,991.4219 239.4594,990.8047 Q240.5531,990.1875 241.7875,990.1875 Q242.5219,990.1875 243.1703,990.3516 Q243.8188,990.5156 244.3656,990.875 Z " fill="#000000"/><text fill="#000000" font-family="sans-serif" font-size="14" lengthAdjust="spacing" textLength="78" x="260.4" y="1000.7285">Candidature</text><line style="stroke:#181818;stroke-width:0.5;" x1="206" x2="362" y1="1011" y2="1011"/><ellipse cx="216" cy="1025.3047" fill="none" rx="3" ry="3" style="stroke:#038048;stroke-width:1.0;"/><text fill="#000000" font-family="sans-serif" font-size="14" lengthAdjust="spacing" textLength="52" x="225" y="1029.5332">String id</text><ellipse cx="216" cy="1042.9141" fill="none" rx="3" ry="3" style="stroke:#038048;stroke-width:1.0;"/><text fill="#000000" font-family="sans-serif" font-size="14" lengthAdjust="spacing" textLength="81" x="225" y="1047.1426">String offreId</text><ellipse cx="216" cy="1060.5234" fill="none" rx="3" ry="3" style="stroke:#038048;stroke-width:1.0;"/><text fill="#000000" font-family="sans-serif" font-size="14" lengthAdjust="spacing" textLength="106" x="225" y="1064.752">String candidatId</text><ellipse cx="216" cy="1078.1328" fill="none" rx="3" ry="3" style="stroke:#038048;stroke-width:1.0;"/><text fill="#000000" font-family="sans-serif" font-size="14" lengthAdjust="spacing" textLength="132" x="225" y="1082.3613">Date datePostulation</text><ellipse cx="216" cy="1095.7422" fill="none" rx="3" ry="3" style="stroke:#038048;stroke-width:1.0;"/><text fill="#000000" font-family="sans-serif" font-size="14" lengthAdjust="spacing" textLength="76" x="225" y="1099.9707">String statut</text><ellipse cx="216" cy="1113.3516" fill="none" rx="3" ry="3" style="stroke:#038048;stroke-width:1.0;"/><text fill="#000000" font-family="sans-serif" font-size="14" lengthAdjust="spacing" textLength="45" x="225" y="1117.5801">URL cv</text><line style="stroke:#181818;stroke-width:0.5;" x1="206" x2="362" y1="1124.6563" y2="1124.6563"/><ellipse cx="216" cy="1138.9609" fill="#84BE84" rx="3" ry="3" style="stroke:#038048;stroke-width:1.0;"/><text fill="#000000" font-family="sans-serif" font-size="14" lengthAdjust="spacing" textLength="129" x="225" y="1143.1895">submitCandidature()</text><ellipse cx="216" cy="1156.5703" fill="#84BE84" rx="3" ry="3" style="stroke:#038048;stroke-width:1.0;"/><text fill="#000000" font-family="sans-serif" font-size="14" lengthAdjust="spacing" textLength="91" x="225" y="1160.7988">updateStatut()</text><ellipse cx="216" cy="1174.1797" fill="#84BE84" rx="3" ry="3" style="stroke:#038048;stroke-width:1.0;"/><text fill="#000000" font-family="sans-serif" font-size="14" lengthAdjust="spacing" textLength="110" x="225" y="1178.4082">analyzeResume()</text></g><!--class Test--><g id="elem_Test"><rect codeLine="62" fill="#F1F1F1" height="188.875" id="Test" rx="2.5" ry="2.5" style="stroke:#181818;stroke-width:0.5;" width="153" x="207.5" y="1263"/><ellipse cx="265.75" cy="1279" fill="#A9DCDF" rx="11" ry="11" style="stroke:#181818;stroke-width:1.0;"/><path d="M267.9375,1280.7656 L263.7969,1280.7656 L263.375,1281.7969 L263.7969,1281.7969 Q264.4063,1281.7969 264.6719,1282.0313 Q264.9375,1282.2656 264.9375,1282.6563 Q264.9375,1283.0313 264.6719,1283.2656 Q264.4063,1283.5 263.7969,1283.5 L261.5,1283.5 Q260.8906,1283.5 260.6328,1283.2656 Q260.375,1283.0313 260.375,1282.6406 Q260.375,1282.2656 260.6484,1282.0234 Q260.9219,1281.7813 261.5469,1281.7969 L264.2188,1275.1406 L263.1094,1275.1406 Q262.5,1275.1406 262.2344,1274.9063 Q261.9688,1274.6719 261.9688,1274.2813 Q261.9688,1273.9063 262.2344,1273.6719 Q262.5,1273.4375 263.1094,1273.4375 L266.7813,1273.4375 L270.1719,1281.7969 Q270.7656,1281.7969 270.9531,1281.9375 Q271.3438,1282.2031 271.3438,1282.6563 Q271.3438,1283.0313 271.0859,1283.2656 Q270.8281,1283.5 270.2188,1283.5 L267.9219,1283.5 Q267.3125,1283.5 267.0469,1283.2656 Q266.7813,1283.0313 266.7813,1282.6406 Q266.7813,1282.2656 267.0469,1282.0313 Q267.3125,1281.7969 267.9219,1281.7969 L268.3438,1281.7969 L267.9375,1280.7656 Z M267.2188,1279.0625 L265.8594,1275.6875 L264.4844,1279.0625 L267.2188,1279.0625 Z " fill="#000000"/><text fill="#000000" font-family="sans-serif" font-size="14" font-style="italic" lengthAdjust="spacing" textLength="28" x="286.25" y="1284.7285">Test</text><line style="stroke:#181818;stroke-width:0.5;" x1="208.5" x2="359.5" y1="1295" y2="1295"/><ellipse cx="218.5" cy="1309.3047" fill="none" rx="3" ry="3" style="stroke:#038048;stroke-width:1.0;"/><text fill="#000000" font-family="sans-serif" font-size="14" lengthAdjust="spacing" textLength="52" x="227.5" y="1313.5332">String id</text><ellipse cx="218.5" cy="1326.9141" fill="none" rx="3" ry="3" style="stroke:#038048;stroke-width:1.0;"/><text fill="#000000" font-family="sans-serif" font-size="14" lengthAdjust="spacing" textLength="127" x="227.5" y="1331.1426">String candidatureId</text><ellipse cx="218.5" cy="1344.5234" fill="none" rx="3" ry="3" style="stroke:#038048;stroke-width:1.0;"/><text fill="#000000" font-family="sans-serif" font-size="14" lengthAdjust="spacing" textLength="68" x="227.5" y="1348.752">String type</text><ellipse cx="218.5" cy="1362.1328" fill="none" rx="3" ry="3" style="stroke:#038048;stroke-width:1.0;"/><text fill="#000000" font-family="sans-serif" font-size="14" lengthAdjust="spacing" textLength="116" x="227.5" y="1366.3613">Date dateCreation</text><ellipse cx="218.5" cy="1379.7422" fill="none" rx="3" ry="3" style="stroke:#038048;stroke-width:1.0;"/><text fill="#000000" font-family="sans-serif" font-size="14" lengthAdjust="spacing" textLength="117" x="227.5" y="1383.9707">Date datePassage</text><ellipse cx="218.5" cy="1397.3516" fill="none" rx="3" ry="3" style="stroke:#038048;stroke-width:1.0;"/><text fill="#000000" font-family="sans-serif" font-size="14" lengthAdjust="spacing" textLength="76" x="227.5" y="1401.5801">String statut</text><line style="stroke:#181818;stroke-width:0.5;" x1="208.5" x2="359.5" y1="1408.6563" y2="1408.6563"/><ellipse cx="218.5" cy="1422.9609" fill="#84BE84" rx="3" ry="3" style="stroke:#038048;stroke-width:1.0;"/><text fill="#000000" font-family="sans-serif" font-size="14" lengthAdjust="spacing" textLength="88" x="227.5" y="1427.1895">genererTest()</text><ellipse cx="218.5" cy="1440.5703" fill="#84BE84" rx="3" ry="3" style="stroke:#038048;stroke-width:1.0;"/><text fill="#000000" font-family="sans-serif" font-size="14" lengthAdjust="spacing" textLength="109" x="227.5" y="1444.7988">evaluerResultat()</text></g><!--class TestTechnique--><g id="elem_TestTechnique"><rect codeLine="73" fill="#F1F1F1" height="100.8281" id="TestTechnique" rx="2.5" ry="2.5" style="stroke:#181818;stroke-width:0.5;" width="170" x="7" y="1530.5"/><ellipse cx="41.35" cy="1546.5" fill="#ADD1B2" rx="11" ry="11" style="stroke:#181818;stroke-width:1.0;"/><path d="M44.1156,1542.375 Q44.2719,1542.1563 44.4594,1542.0469 Q44.6469,1541.9375 44.8656,1541.9375 Q45.2406,1541.9375 45.475,1542.1953 Q45.7094,1542.4531 45.7094,1543.0625 L45.7094,1544.5156 Q45.7094,1545.125 45.475,1545.3906 Q45.2406,1545.6563 44.8656,1545.6563 Q44.5219,1545.6563 44.3188,1545.4531 Q44.1156,1545.2656 44.0063,1544.75 Q43.9594,1544.3906 43.7719,1544.2031 Q43.4438,1543.8281 42.8344,1543.6094 Q42.225,1543.3906 41.6,1543.3906 Q40.8344,1543.3906 40.2016,1543.7188 Q39.5688,1544.0469 39.0766,1544.7969 Q38.5844,1545.5469 38.5844,1546.5781 L38.5844,1547.6719 Q38.5844,1548.9063 39.475,1549.7266 Q40.3656,1550.5469 41.9594,1550.5469 Q42.8969,1550.5469 43.5531,1550.2969 Q43.9438,1550.1406 44.3656,1549.7031 Q44.6313,1549.4375 44.7797,1549.3594 Q44.9281,1549.2813 45.1313,1549.2813 Q45.4594,1549.2813 45.7172,1549.5391 Q45.975,1549.7969 45.975,1550.1406 Q45.975,1550.4844 45.6313,1550.8906 Q45.1313,1551.4688 44.3344,1551.7969 Q43.2563,1552.25 41.9594,1552.25 Q40.4438,1552.25 39.2406,1551.625 Q38.2563,1551.125 37.5688,1550.0547 Q36.8813,1548.9844 36.8813,1547.7031 L36.8813,1546.5469 Q36.8813,1545.2188 37.4984,1544.0703 Q38.1156,1542.9219 39.2094,1542.3047 Q40.3031,1541.6875 41.5375,1541.6875 Q42.2719,1541.6875 42.9203,1541.8516 Q43.5688,1542.0156 44.1156,1542.375 Z " fill="#000000"/><text fill="#000000" font-family="sans-serif" font-size="14" lengthAdjust="spacing" textLength="95" x="59.65" y="1552.2285">TestTechnique</text><line style="stroke:#181818;stroke-width:0.5;" x1="8" x2="176" y1="1562.5" y2="1562.5"/><ellipse cx="18" cy="1576.8047" fill="none" rx="3" ry="3" style="stroke:#038048;stroke-width:1.0;"/><text fill="#000000" font-family="sans-serif" font-size="14" lengthAdjust="spacing" textLength="110" x="27" y="1581.0332">String[] questions</text><ellipse cx="18" cy="1594.4141" fill="none" rx="3" ry="3" style="stroke:#038048;stroke-width:1.0;"/><text fill="#000000" font-family="sans-serif" font-size="14" lengthAdjust="spacing" textLength="108" x="27" y="1598.6426">String[] reponses</text><line style="stroke:#181818;stroke-width:0.5;" x1="8" x2="176" y1="1605.7188" y2="1605.7188"/><ellipse cx="18" cy="1620.0234" fill="#84BE84" rx="3" ry="3" style="stroke:#038048;stroke-width:1.0;"/><text fill="#000000" font-family="sans-serif" font-size="14" lengthAdjust="spacing" textLength="144" x="27" y="1624.252">evaluerCompetences()</text></g><!--class TestPsychologique--><g id="elem_TestPsychologique"><rect codeLine="79" fill="#F1F1F1" height="118.4375" id="TestPsychologique" rx="2.5" ry="2.5" style="stroke:#181818;stroke-width:0.5;" width="175" x="390.5" y="1522"/><ellipse cx="415.85" cy="1538" fill="#ADD1B2" rx="11" ry="11" style="stroke:#181818;stroke-width:1.0;"/><path d="M418.6156,1533.875 Q418.7719,1533.6563 418.9594,1533.5469 Q419.1469,1533.4375 419.3656,1533.4375 Q419.7406,1533.4375 419.975,1533.6953 Q420.2094,1533.9531 420.2094,1534.5625 L420.2094,1536.0156 Q420.2094,1536.625 419.975,1536.8906 Q419.7406,1537.1563 419.3656,1537.1563 Q419.0219,1537.1563 418.8188,1536.9531 Q418.6156,1536.7656 418.5063,1536.25 Q418.4594,1535.8906 418.2719,1535.7031 Q417.9438,1535.3281 417.3344,1535.1094 Q416.725,1534.8906 416.1,1534.8906 Q415.3344,1534.8906 414.7016,1535.2188 Q414.0688,1535.5469 413.5766,1536.2969 Q413.0844,1537.0469 413.0844,1538.0781 L413.0844,1539.1719 Q413.0844,1540.4063 413.975,1541.2266 Q414.8656,1542.0469 416.4594,1542.0469 Q417.3969,1542.0469 418.0531,1541.7969 Q418.4438,1541.6406 418.8656,1541.2031 Q419.1313,1540.9375 419.2797,1540.8594 Q419.4281,1540.7813 419.6313,1540.7813 Q419.9594,1540.7813 420.2172,1541.0391 Q420.475,1541.2969 420.475,1541.6406 Q420.475,1541.9844 420.1313,1542.3906 Q419.6313,1542.9688 418.8344,1543.2969 Q417.7563,1543.75 416.4594,1543.75 Q414.9438,1543.75 413.7406,1543.125 Q412.7563,1542.625 412.0688,1541.5547 Q411.3813,1540.4844 411.3813,1539.2031 L411.3813,1538.0469 Q411.3813,1536.7188 411.9984,1535.5703 Q412.6156,1534.4219 413.7094,1533.8047 Q414.8031,1533.1875 416.0375,1533.1875 Q416.7719,1533.1875 417.4203,1533.3516 Q418.0688,1533.5156 418.6156,1533.875 Z " fill="#000000"/><text fill="#000000" font-family="sans-serif" font-size="14" lengthAdjust="spacing" textLength="120" x="432.15" y="1543.7285">TestPsychologique</text><line style="stroke:#181818;stroke-width:0.5;" x1="391.5" x2="564.5" y1="1554" y2="1554"/><ellipse cx="401.5" cy="1568.3047" fill="none" rx="3" ry="3" style="stroke:#038048;stroke-width:1.0;"/><text fill="#000000" font-family="sans-serif" font-size="14" lengthAdjust="spacing" textLength="110" x="410.5" y="1572.5332">String[] questions</text><ellipse cx="401.5" cy="1585.9141" fill="none" rx="3" ry="3" style="stroke:#038048;stroke-width:1.0;"/><text fill="#000000" font-family="sans-serif" font-size="14" lengthAdjust="spacing" textLength="149" x="410.5" y="1590.1426">Object resultatsAnalyse</text><line style="stroke:#181818;stroke-width:0.5;" x1="391.5" x2="564.5" y1="1597.2188" y2="1597.2188"/><ellipse cx="401.5" cy="1611.5234" fill="#84BE84" rx="3" ry="3" style="stroke:#038048;stroke-width:1.0;"/><text fill="#000000" font-family="sans-serif" font-size="14" lengthAdjust="spacing" textLength="146" x="410.5" y="1615.752">demarrerEntretienBot()</text><ellipse cx="401.5" cy="1629.1328" fill="#84BE84" rx="3" ry="3" style="stroke:#038048;stroke-width:1.0;"/><text fill="#000000" font-family="sans-serif" font-size="14" lengthAdjust="spacing" textLength="121" x="410.5" y="1633.3613">analyserEntretien()</text></g><!--class EntretienBot--><g id="elem_EntretienBot"><rect codeLine="86" fill="#F1F1F1" height="188.875" id="EntretienBot" rx="2.5" ry="2.5" style="stroke:#181818;stroke-width:0.5;" width="183" x="537.5" y="1727"/><ellipse cx="585.75" cy="1743" fill="#ADD1B2" rx="11" ry="11" style="stroke:#181818;stroke-width:1.0;"/><path d="M588.5156,1738.875 Q588.6719,1738.6563 588.8594,1738.5469 Q589.0469,1738.4375 589.2656,1738.4375 Q589.6406,1738.4375 589.875,1738.6953 Q590.1094,1738.9531 590.1094,1739.5625 L590.1094,1741.0156 Q590.1094,1741.625 589.875,1741.8906 Q589.6406,1742.1563 589.2656,1742.1563 Q588.9219,1742.1563 588.7188,1741.9531 Q588.5156,1741.7656 588.4063,1741.25 Q588.3594,1740.8906 588.1719,1740.7031 Q587.8438,1740.3281 587.2344,1740.1094 Q586.625,1739.8906 586,1739.8906 Q585.2344,1739.8906 584.6016,1740.2188 Q583.9688,1740.5469 583.4766,1741.2969 Q582.9844,1742.0469 582.9844,1743.0781 L582.9844,1744.1719 Q582.9844,1745.4063 583.875,1746.2266 Q584.7656,1747.0469 586.3594,1747.0469 Q587.2969,1747.0469 587.9531,1746.7969 Q588.3438,1746.6406 588.7656,1746.2031 Q589.0313,1745.9375 589.1797,1745.8594 Q589.3281,1745.7813 589.5313,1745.7813 Q589.8594,1745.7813 590.1172,1746.0391 Q590.375,1746.2969 590.375,1746.6406 Q590.375,1746.9844 590.0313,1747.3906 Q589.5313,1747.9688 588.7344,1748.2969 Q587.6563,1748.75 586.3594,1748.75 Q584.8438,1748.75 583.6406,1748.125 Q582.6563,1747.625 581.9688,1746.5547 Q581.2813,1745.4844 581.2813,1744.2031 L581.2813,1743.0469 Q581.2813,1741.7188 581.8984,1740.5703 Q582.5156,1739.4219 583.6094,1738.8047 Q584.7031,1738.1875 585.9375,1738.1875 Q586.6719,1738.1875 587.3203,1738.3516 Q587.9688,1738.5156 588.5156,1738.875 Z " fill="#000000"/><text fill="#000000" font-family="sans-serif" font-size="14" lengthAdjust="spacing" textLength="78" x="606.25" y="1748.7285">EntretienBot</text><line style="stroke:#181818;stroke-width:0.5;" x1="538.5" x2="719.5" y1="1759" y2="1759"/><ellipse cx="548.5" cy="1773.3047" fill="none" rx="3" ry="3" style="stroke:#038048;stroke-width:1.0;"/><text fill="#000000" font-family="sans-serif" font-size="14" lengthAdjust="spacing" textLength="52" x="557.5" y="1777.5332">String id</text><ellipse cx="548.5" cy="1790.9141" fill="none" rx="3" ry="3" style="stroke:#038048;stroke-width:1.0;"/><text fill="#000000" font-family="sans-serif" font-size="14" lengthAdjust="spacing" textLength="119" x="557.5" y="1795.1426">Date dateEntretien</text><ellipse cx="548.5" cy="1808.5234" fill="none" rx="3" ry="3" style="stroke:#038048;stroke-width:1.0;"/><text fill="#000000" font-family="sans-serif" font-size="14" lengthAdjust="spacing" textLength="110" x="557.5" y="1812.752">String[] questions</text><ellipse cx="548.5" cy="1826.1328" fill="none" rx="3" ry="3" style="stroke:#038048;stroke-width:1.0;"/><text fill="#000000" font-family="sans-serif" font-size="14" lengthAdjust="spacing" textLength="140" x="557.5" y="1830.3613">Object enregistrement</text><ellipse cx="548.5" cy="1843.7422" fill="none" rx="3" ry="3" style="stroke:#038048;stroke-width:1.0;"/><text fill="#000000" font-family="sans-serif" font-size="14" lengthAdjust="spacing" textLength="157" x="557.5" y="1847.9707">Object metriquesAnalyse</text><line style="stroke:#181818;stroke-width:0.5;" x1="538.5" x2="719.5" y1="1855.0469" y2="1855.0469"/><ellipse cx="548.5" cy="1869.3516" fill="#84BE84" rx="3" ry="3" style="stroke:#038048;stroke-width:1.0;"/><text fill="#000000" font-family="sans-serif" font-size="14" lengthAdjust="spacing" textLength="110" x="557.5" y="1873.5801">poserQuestions()</text><ellipse cx="548.5" cy="1886.9609" fill="#84BE84" rx="3" ry="3" style="stroke:#038048;stroke-width:1.0;"/><text fill="#000000" font-family="sans-serif" font-size="14" lengthAdjust="spacing" textLength="143" x="557.5" y="1891.1895">enregistrerReponses()</text><ellipse cx="548.5" cy="1904.5703" fill="#84BE84" rx="3" ry="3" style="stroke:#038048;stroke-width:1.0;"/><text fill="#000000" font-family="sans-serif" font-size="14" lengthAdjust="spacing" textLength="100" x="557.5" y="1908.7988">analyserVideo()</text></g><!--class AnalyseEntretien--><g id="elem_AnalyseEntretien"><rect codeLine="97" fill="#F1F1F1" height="136.0469" id="AnalyseEntretien" rx="2.5" ry="2.5" style="stroke:#181818;stroke-width:0.5;" width="252" x="503" y="1994"/><ellipse cx="571.25" cy="2010" fill="#ADD1B2" rx="11" ry="11" style="stroke:#181818;stroke-width:1.0;"/><path d="M574.0156,2005.875 Q574.1719,2005.6563 574.3594,2005.5469 Q574.5469,2005.4375 574.7656,2005.4375 Q575.1406,2005.4375 575.375,2005.6953 Q575.6094,2005.9531 575.6094,2006.5625 L575.6094,2008.0156 Q575.6094,2008.625 575.375,2008.8906 Q575.1406,2009.1563 574.7656,2009.1563 Q574.4219,2009.1563 574.2188,2008.9531 Q574.0156,2008.7656 573.9063,2008.25 Q573.8594,2007.8906 573.6719,2007.7031 Q573.3438,2007.3281 572.7344,2007.1094 Q572.125,2006.8906 571.5,2006.8906 Q570.7344,2006.8906 570.1016,2007.2188 Q569.4688,2007.5469 568.9766,2008.2969 Q568.4844,2009.0469 568.4844,2010.0781 L568.4844,2011.1719 Q568.4844,2012.4063 569.375,2013.2266 Q570.2656,2014.0469 571.8594,2014.0469 Q572.7969,2014.0469 573.4531,2013.7969 Q573.8438,2013.6406 574.2656,2013.2031 Q574.5313,2012.9375 574.6797,2012.8594 Q574.8281,2012.7813 575.0313,2012.7813 Q575.3594,2012.7813 575.6172,2013.0391 Q575.875,2013.2969 575.875,2013.6406 Q575.875,2013.9844 575.5313,2014.3906 Q575.0313,2014.9688 574.2344,2015.2969 Q573.1563,2015.75 571.8594,2015.75 Q570.3438,2015.75 569.1406,2015.125 Q568.1563,2014.625 567.4688,2013.5547 Q566.7813,2012.4844 566.7813,2011.2031 L566.7813,2010.0469 Q566.7813,2008.7188 567.3984,2007.5703 Q568.0156,2006.4219 569.1094,2005.8047 Q570.2031,2005.1875 571.4375,2005.1875 Q572.1719,2005.1875 572.8203,2005.3516 Q573.4688,2005.5156 574.0156,2005.875 Z " fill="#000000"/><text fill="#000000" font-family="sans-serif" font-size="14" lengthAdjust="spacing" textLength="107" x="591.75" y="2015.7285">AnalyseEntretien</text><line style="stroke:#181818;stroke-width:0.5;" x1="504" x2="754" y1="2026" y2="2026"/><ellipse cx="514" cy="2040.3047" fill="none" rx="3" ry="3" style="stroke:#038048;stroke-width:1.0;"/><text fill="#000000" font-family="sans-serif" font-size="14" lengthAdjust="spacing" textLength="198" x="523" y="2044.5332">Object detectionsEmotionnelles</text><ellipse cx="514" cy="2057.9141" fill="none" rx="3" ry="3" style="stroke:#038048;stroke-width:1.0;"/><text fill="#000000" font-family="sans-serif" font-size="14" lengthAdjust="spacing" textLength="170" x="523" y="2062.1426">Object analyseLinguistique</text><ellipse cx="514" cy="2075.5234" fill="none" rx="3" ry="3" style="stroke:#038048;stroke-width:1.0;"/><text fill="#000000" font-family="sans-serif" font-size="14" lengthAdjust="spacing" textLength="226" x="523" y="2079.752">Object metriquesComportementales</text><line style="stroke:#181818;stroke-width:0.5;" x1="504" x2="754" y1="2086.8281" y2="2086.8281"/><ellipse cx="514" cy="2101.1328" fill="#84BE84" rx="3" ry="3" style="stroke:#038048;stroke-width:1.0;"/><text fill="#000000" font-family="sans-serif" font-size="14" lengthAdjust="spacing" textLength="96" x="523" y="2105.3613">calculerScore()</text><ellipse cx="514" cy="2118.7422" fill="#84BE84" rx="3" ry="3" style="stroke:#038048;stroke-width:1.0;"/><text fill="#000000" font-family="sans-serif" font-size="14" lengthAdjust="spacing" textLength="111" x="523" y="2122.9707">genererRapport()</text></g><!--class IAModele--><g id="elem_IAModele"><rect codeLine="106" fill="#F1F1F1" height="136.0469" id="IAModele" rx="2.5" ry="2.5" style="stroke:#181818;stroke-width:0.5;" width="143" x="212.5" y="1513"/><ellipse cx="250.45" cy="1529" fill="#B4A7E5" rx="11" ry="11" style="stroke:#181818;stroke-width:1.0;"/><path d="M251.4031,1525.6406 L251.4031,1532.2969 L253.1219,1532.2969 Q253.7313,1532.2969 253.9969,1532.5313 Q254.2625,1532.7656 254.2625,1533.1563 Q254.2625,1533.5313 253.9969,1533.7656 Q253.7313,1534 253.1219,1534 L247.9813,1534 Q247.3719,1534 247.1063,1533.7656 Q246.8406,1533.5313 246.8406,1533.1406 Q246.8406,1532.7656 247.1063,1532.5313 Q247.3719,1532.2969 247.9813,1532.2969 L249.7,1532.2969 L249.7,1525.6406 L247.9813,1525.6406 Q247.3719,1525.6406 247.1063,1525.4063 Q246.8406,1525.1719 246.8406,1524.7813 Q246.8406,1524.4063 247.1063,1524.1719 Q247.3719,1523.9375 247.9813,1523.9375 L253.1219,1523.9375 Q253.7313,1523.9375 253.9969,1524.1719 Q254.2625,1524.4063 254.2625,1524.7813 Q254.2625,1525.1719 253.9969,1525.4063 Q253.7313,1525.6406 253.1219,1525.6406 L251.4031,1525.6406 Z " fill="#000000"/><text fill="#000000" font-family="sans-serif" font-size="14" font-style="italic" lengthAdjust="spacing" textLength="60" x="269.55" y="1534.7285">IAModele</text><line style="stroke:#181818;stroke-width:0.5;" x1="213.5" x2="354.5" y1="1545" y2="1545"/><ellipse cx="223.5" cy="1559.3047" fill="none" rx="3" ry="3" style="stroke:#038048;stroke-width:1.0;"/><text fill="#000000" font-family="sans-serif" font-size="14" lengthAdjust="spacing" textLength="87" x="232.5" y="1563.5332">String modele</text><ellipse cx="223.5" cy="1576.9141" fill="none" rx="3" ry="3" style="stroke:#038048;stroke-width:1.0;"/><text fill="#000000" font-family="sans-serif" font-size="14" lengthAdjust="spacing" textLength="87" x="232.5" y="1581.1426">String version</text><ellipse cx="223.5" cy="1594.5234" fill="none" rx="3" ry="3" style="stroke:#038048;stroke-width:1.0;"/><text fill="#000000" font-family="sans-serif" font-size="14" lengthAdjust="spacing" textLength="117" x="232.5" y="1598.752">Object parametres</text><line style="stroke:#181818;stroke-width:0.5;" x1="213.5" x2="354.5" y1="1605.8281" y2="1605.8281"/><ellipse cx="223.5" cy="1620.1328" fill="#84BE84" rx="3" ry="3" style="stroke:#038048;stroke-width:1.0;"/><text fill="#000000" font-family="sans-serif" font-size="14" lengthAdjust="spacing" textLength="65" x="232.5" y="1624.3613">initialiser()</text><ellipse cx="223.5" cy="1637.7422" fill="#84BE84" rx="3" ry="3" style="stroke:#038048;stroke-width:1.0;"/><text fill="#000000" font-family="sans-serif" font-size="14" lengthAdjust="spacing" textLength="64" x="232.5" y="1641.9707">executer()</text></g><!--class CodeLlama--><g id="elem_CodeLlama"><rect codeLine="114" fill="#F1F1F1" height="100.8281" id="CodeLlama" rx="2.5" ry="2.5" style="stroke:#181818;stroke-width:0.5;" width="181" x="7.5" y="1771"/><ellipse cx="57.75" cy="1787" fill="#ADD1B2" rx="11" ry="11" style="stroke:#181818;stroke-width:1.0;"/><path d="M60.5156,1782.875 Q60.6719,1782.6563 60.8594,1782.5469 Q61.0469,1782.4375 61.2656,1782.4375 Q61.6406,1782.4375 61.875,1782.6953 Q62.1094,1782.9531 62.1094,1783.5625 L62.1094,1785.0156 Q62.1094,1785.625 61.875,1785.8906 Q61.6406,1786.1563 61.2656,1786.1563 Q60.9219,1786.1563 60.7188,1785.9531 Q60.5156,1785.7656 60.4063,1785.25 Q60.3594,1784.8906 60.1719,1784.7031 Q59.8438,1784.3281 59.2344,1784.1094 Q58.625,1783.8906 58,1783.8906 Q57.2344,1783.8906 56.6016,1784.2188 Q55.9688,1784.5469 55.4766,1785.2969 Q54.9844,1786.0469 54.9844,1787.0781 L54.9844,1788.1719 Q54.9844,1789.4063 55.875,1790.2266 Q56.7656,1791.0469 58.3594,1791.0469 Q59.2969,1791.0469 59.9531,1790.7969 Q60.3438,1790.6406 60.7656,1790.2031 Q61.0313,1789.9375 61.1797,1789.8594 Q61.3281,1789.7813 61.5313,1789.7813 Q61.8594,1789.7813 62.1172,1790.0391 Q62.375,1790.2969 62.375,1790.6406 Q62.375,1790.9844 62.0313,1791.3906 Q61.5313,1791.9688 60.7344,1792.2969 Q59.6563,1792.75 58.3594,1792.75 Q56.8438,1792.75 55.6406,1792.125 Q54.6563,1791.625 53.9688,1790.5547 Q53.2813,1789.4844 53.2813,1788.2031 L53.2813,1787.0469 Q53.2813,1785.7188 53.8984,1784.5703 Q54.5156,1783.4219 55.6094,1782.8047 Q56.7031,1782.1875 57.9375,1782.1875 Q58.6719,1782.1875 59.3203,1782.3516 Q59.9688,1782.5156 60.5156,1782.875 Z " fill="#000000"/><text fill="#000000" font-family="sans-serif" font-size="14" lengthAdjust="spacing" textLength="72" x="78.25" y="1792.7285">CodeLlama</text><line style="stroke:#181818;stroke-width:0.5;" x1="8.5" x2="187.5" y1="1803" y2="1803"/><line style="stroke:#181818;stroke-width:0.5;" x1="8.5" x2="187.5" y1="1811" y2="1811"/><ellipse cx="18.5" cy="1825.3047" fill="#84BE84" rx="3" ry="3" style="stroke:#038048;stroke-width:1.0;"/><text fill="#000000" font-family="sans-serif" font-size="14" lengthAdjust="spacing" textLength="155" x="27.5" y="1829.5332">genererTestTechnique()</text><ellipse cx="18.5" cy="1842.9141" fill="#84BE84" rx="3" ry="3" style="stroke:#038048;stroke-width:1.0;"/><text fill="#000000" font-family="sans-serif" font-size="14" lengthAdjust="spacing" textLength="148" x="27.5" y="1847.1426">evaluerCodeCandidat()</text><ellipse cx="18.5" cy="1860.5234" fill="#84BE84" rx="3" ry="3" style="stroke:#038048;stroke-width:1.0;"/><text fill="#000000" font-family="sans-serif" font-size="14" lengthAdjust="spacing" textLength="83" x="27.5" y="1864.752">analyserCV()</text></g><!--class LLaMA3--><g id="elem_LLaMA3"><rect codeLine="120" fill="#F1F1F1" height="83.2188" id="LLaMA3" rx="2.5" ry="2.5" style="stroke:#181818;stroke-width:0.5;" width="206" x="296" y="1780"/><ellipse cx="368.75" cy="1796" fill="#ADD1B2" rx="11" ry="11" style="stroke:#181818;stroke-width:1.0;"/><path d="M371.5156,1791.875 Q371.6719,1791.6563 371.8594,1791.5469 Q372.0469,1791.4375 372.2656,1791.4375 Q372.6406,1791.4375 372.875,1791.6953 Q373.1094,1791.9531 373.1094,1792.5625 L373.1094,1794.0156 Q373.1094,1794.625 372.875,1794.8906 Q372.6406,1795.1563 372.2656,1795.1563 Q371.9219,1795.1563 371.7188,1794.9531 Q371.5156,1794.7656 371.4063,1794.25 Q371.3594,1793.8906 371.1719,1793.7031 Q370.8438,1793.3281 370.2344,1793.1094 Q369.625,1792.8906 369,1792.8906 Q368.2344,1792.8906 367.6016,1793.2188 Q366.9688,1793.5469 366.4766,1794.2969 Q365.9844,1795.0469 365.9844,1796.0781 L365.9844,1797.1719 Q365.9844,1798.4063 366.875,1799.2266 Q367.7656,1800.0469 369.3594,1800.0469 Q370.2969,1800.0469 370.9531,1799.7969 Q371.3438,1799.6406 371.7656,1799.2031 Q372.0313,1798.9375 372.1797,1798.8594 Q372.3281,1798.7813 372.5313,1798.7813 Q372.8594,1798.7813 373.1172,1799.0391 Q373.375,1799.2969 373.375,1799.6406 Q373.375,1799.9844 373.0313,1800.3906 Q372.5313,1800.9688 371.7344,1801.2969 Q370.6563,1801.75 369.3594,1801.75 Q367.8438,1801.75 366.6406,1801.125 Q365.6563,1800.625 364.9688,1799.5547 Q364.2813,1798.4844 364.2813,1797.2031 L364.2813,1796.0469 Q364.2813,1794.7188 364.8984,1793.5703 Q365.5156,1792.4219 366.6094,1791.8047 Q367.7031,1791.1875 368.9375,1791.1875 Q369.6719,1791.1875 370.3203,1791.3516 Q370.9688,1791.5156 371.5156,1791.875 Z " fill="#000000"/><text fill="#000000" font-family="sans-serif" font-size="14" lengthAdjust="spacing" textLength="52" x="389.25" y="1801.7285">LLaMA3</text><line style="stroke:#181818;stroke-width:0.5;" x1="297" x2="501" y1="1812" y2="1812"/><line style="stroke:#181818;stroke-width:0.5;" x1="297" x2="501" y1="1820" y2="1820"/><ellipse cx="307" cy="1834.3047" fill="#84BE84" rx="3" ry="3" style="stroke:#038048;stroke-width:1.0;"/><text fill="#000000" font-family="sans-serif" font-size="14" lengthAdjust="spacing" textLength="180" x="316" y="1838.5332">genererTestPsychologique()</text><ellipse cx="307" cy="1851.9141" fill="#84BE84" rx="3" ry="3" style="stroke:#038048;stroke-width:1.0;"/><text fill="#000000" font-family="sans-serif" font-size="14" lengthAdjust="spacing" textLength="128" x="316" y="1856.1426">analyserReponses()</text></g><!--class IABotVideo--><g id="elem_IABotVideo"><rect codeLine="125" fill="#F1F1F1" height="100.8281" id="IABotVideo" rx="2.5" ry="2.5" style="stroke:#181818;stroke-width:0.5;" width="154" x="240" y="2011.5"/><ellipse cx="278.85" cy="2027.5" fill="#ADD1B2" rx="11" ry="11" style="stroke:#181818;stroke-width:1.0;"/><path d="M281.6156,2023.375 Q281.7719,2023.1563 281.9594,2023.0469 Q282.1469,2022.9375 282.3656,2022.9375 Q282.7406,2022.9375 282.975,2023.1953 Q283.2094,2023.4531 283.2094,2024.0625 L283.2094,2025.5156 Q283.2094,2026.125 282.975,2026.3906 Q282.7406,2026.6563 282.3656,2026.6563 Q282.0219,2026.6563 281.8188,2026.4531 Q281.6156,2026.2656 281.5063,2025.75 Q281.4594,2025.3906 281.2719,2025.2031 Q280.9438,2024.8281 280.3344,2024.6094 Q279.725,2024.3906 279.1,2024.3906 Q278.3344,2024.3906 277.7016,2024.7188 Q277.0688,2025.0469 276.5766,2025.7969 Q276.0844,2026.5469 276.0844,2027.5781 L276.0844,2028.6719 Q276.0844,2029.9063 276.975,2030.7266 Q277.8656,2031.5469 279.4594,2031.5469 Q280.3969,2031.5469 281.0531,2031.2969 Q281.4438,2031.1406 281.8656,2030.7031 Q282.1313,2030.4375 282.2797,2030.3594 Q282.4281,2030.2813 282.6313,2030.2813 Q282.9594,2030.2813 283.2172,2030.5391 Q283.475,2030.7969 283.475,2031.1406 Q283.475,2031.4844 283.1313,2031.8906 Q282.6313,2032.4688 281.8344,2032.7969 Q280.7563,2033.25 279.4594,2033.25 Q277.9438,2033.25 276.7406,2032.625 Q275.7563,2032.125 275.0688,2031.0547 Q274.3813,2029.9844 274.3813,2028.7031 L274.3813,2027.5469 Q274.3813,2026.2188 274.9984,2025.0703 Q275.6156,2023.9219 276.7094,2023.3047 Q277.8031,2022.6875 279.0375,2022.6875 Q279.7719,2022.6875 280.4203,2022.8516 Q281.0688,2023.0156 281.6156,2023.375 Z " fill="#000000"/><text fill="#000000" font-family="sans-serif" font-size="14" lengthAdjust="spacing" textLength="69" x="298.15" y="2033.2285">IABotVideo</text><line style="stroke:#181818;stroke-width:0.5;" x1="241" x2="393" y1="2043.5" y2="2043.5"/><line style="stroke:#181818;stroke-width:0.5;" x1="241" x2="393" y1="2051.5" y2="2051.5"/><ellipse cx="251" cy="2065.8047" fill="#84BE84" rx="3" ry="3" style="stroke:#038048;stroke-width:1.0;"/><text fill="#000000" font-family="sans-serif" font-size="14" lengthAdjust="spacing" textLength="120" x="260" y="2070.0332">detecterEmotions()</text><ellipse cx="251" cy="2083.4141" fill="#84BE84" rx="3" ry="3" style="stroke:#038048;stroke-width:1.0;"/><text fill="#000000" font-family="sans-serif" font-size="14" lengthAdjust="spacing" textLength="128" x="260" y="2087.6426">analyserLanguage()</text><ellipse cx="251" cy="2101.0234" fill="#84BE84" rx="3" ry="3" style="stroke:#038048;stroke-width:1.0;"/><text fill="#000000" font-family="sans-serif" font-size="14" lengthAdjust="spacing" textLength="127" x="260" y="2105.252">detecterAnomalies()</text></g><!--reverse link User to Recruteur--><g id="link_User_Recruteur"><path codeLine="132" d="M377.5143,246.9428 C388.6943,267.6728 391.52,272.89 401.72,291.78 " fill="none" id="User-backto-Recruteur" style="stroke:#181818;stroke-width:1.0;"/><polygon fill="none" points="368.97,231.1,372.2333,249.7909,382.7952,244.0947,368.97,231.1" style="stroke:#181818;stroke-width:1.0;"/></g><!--reverse link User to Candidat--><g id="link_User_Candidat"><path codeLine="133" d="M295.877,248.9174 C288.647,319.9374 281.24,392.74 274.61,457.93 " fill="none" id="User-backto-Candidat" style="stroke:#181818;stroke-width:1.0;"/><polygon fill="none" points="297.7,231.01,289.9078,248.3098,301.8461,249.5251,297.7,231.01" style="stroke:#181818;stroke-width:1.0;"/></g><!--link Recruteur to Offre--><g id="link_Recruteur_Offre"><path codeLine="135" d="M438.96,428.16 C439.86,490.24 441.2,583.93 442.28,658.88 " fill="none" id="Recruteur-Offre" style="stroke:#181818;stroke-width:1.0;"/><text fill="#000000" font-family="sans-serif" font-size="13" lengthAdjust="spacing" textLength="25" x="443" y="548.9951">cr&#233;e</text><text fill="#000000" font-family="sans-serif" font-size="13" lengthAdjust="spacing" textLength="7" x="431.6981" y="449.5248">1</text><text fill="#000000" font-family="sans-serif" font-size="13" lengthAdjust="spacing" textLength="5" x="437.0097" y="648.1241">*</text></g><!--link Candidat to Candidature--><g id="link_Candidat_Candidature"><path codeLine="136" d="M266.24,629.17 C266.73,701.42 268.12,808.07 272,901 C273.05,926.19 274.63,953.34 276.3,978.72 " fill="none" id="Candidat-Candidature" style="stroke:#181818;stroke-width:1.0;"/><text fill="#000000" font-family="sans-serif" font-size="13" lengthAdjust="spacing" textLength="43" x="273" y="785.4951">soumet</text><text fill="#000000" font-family="sans-serif" font-size="13" lengthAdjust="spacing" textLength="7" x="258.9598" y="650.7186">1</text><text fill="#000000" font-family="sans-serif" font-size="13" lengthAdjust="spacing" textLength="5" x="270.5509" y="968.0381">*</text></g><!--link Offre to Candidature--><g id="link_Offre_Candidature"><path codeLine="137" d="M379.84,901.29 C366.19,926.89 351.9,953.68 338.65,978.53 " fill="none" id="Offre-Candidature" style="stroke:#181818;stroke-width:1.0;"/><text fill="#000000" font-family="sans-serif" font-size="13" lengthAdjust="spacing" textLength="32" x="365" y="945.4951">re&#231;oit</text><text fill="#000000" font-family="sans-serif" font-size="13" lengthAdjust="spacing" textLength="7" x="368.9284" y="922.2784">1</text><text fill="#000000" font-family="sans-serif" font-size="13" lengthAdjust="spacing" textLength="5" x="337.3168" y="968.1827">*</text></g><!--link Candidature to Test--><g id="link_Candidature_Test"><path codeLine="138" d="M284,1185.23 C284,1210.72 284,1237.92 284,1262.97 " fill="none" id="Candidature-Test" style="stroke:#181818;stroke-width:1.0;"/><text fill="#000000" font-family="sans-serif" font-size="13" lengthAdjust="spacing" textLength="57" x="285" y="1229.4951">comprend</text><text fill="#000000" font-family="sans-serif" font-size="13" lengthAdjust="spacing" textLength="7" x="276.743" y="1206.8887">1</text><text fill="#000000" font-family="sans-serif" font-size="13" lengthAdjust="spacing" textLength="22" x="261.0891" y="1251.9941">1..2</text></g><!--reverse link Test to TestTechnique--><g id="link_Test_TestTechnique"><path codeLine="140" d="M195.4996,1460.601 C170.9496,1488.921 156.44,1505.66 135.17,1530.2 " fill="none" id="Test-backto-TestTechnique" style="stroke:#181818;stroke-width:1.0;"/><polygon fill="none" points="207.29,1447,190.9659,1456.6708,200.0333,1464.5311,207.29,1447" style="stroke:#181818;stroke-width:1.0;"/></g><!--reverse link Test to TestPsychologique--><g id="link_Test_TestPsychologique"><path codeLine="141" d="M372.5291,1459.5811 C394.8791,1485.1011 406.88,1498.79 427.2,1522 " fill="none" id="Test-backto-TestPsychologique" style="stroke:#181818;stroke-width:1.0;"/><polygon fill="none" points="360.67,1446.04,368.0154,1463.5342,377.0428,1455.6281,360.67,1446.04" style="stroke:#181818;stroke-width:1.0;"/></g><!--link TestPsychologique to EntretienBot--><g id="link_TestPsychologique_EntretienBot"><path codeLine="143" d="M514.75,1640.04 C531.24,1666.1 551.13,1697.51 569.66,1726.77 " fill="none" id="TestPsychologique-EntretienBot" style="stroke:#181818;stroke-width:1.0;"/><text fill="#000000" font-family="sans-serif" font-size="13" lengthAdjust="spacing" textLength="34" x="550" y="1693.4951">utilise</text><text fill="#000000" font-family="sans-serif" font-size="13" lengthAdjust="spacing" textLength="7" x="512.0102" y="1662.1191">1</text><text fill="#000000" font-family="sans-serif" font-size="13" lengthAdjust="spacing" textLength="7" x="557.6524" y="1716.0978">1</text></g><!--link EntretienBot to AnalyseEntretien--><g id="link_EntretienBot_AnalyseEntretien"><path codeLine="144" d="M629,1916.08 C629,1942.05 629,1969.72 629,1993.85 " fill="none" id="EntretienBot-AnalyseEntretien" style="stroke:#181818;stroke-width:1.0;"/><text fill="#000000" font-family="sans-serif" font-size="13" lengthAdjust="spacing" textLength="39" x="630" y="1960.4951">produit</text><text fill="#000000" font-family="sans-serif" font-size="13" lengthAdjust="spacing" textLength="7" x="621.732" y="1937.4471">1</text><text fill="#000000" font-family="sans-serif" font-size="13" lengthAdjust="spacing" textLength="7" x="621.6172" y="1983.0329">1</text></g><!--reverse link IAModele to CodeLlama--><g id="link_IAModele_CodeLlama"><path codeLine="146" d="M220.6221,1663.2651 C190.4321,1701.9851 164.18,1735.64 136.65,1770.94 " fill="none" id="IAModele-backto-CodeLlama" style="stroke:#181818;stroke-width:1.0;stroke-dasharray:7.0,7.0;"/><polygon fill="none" points="231.69,1649.07,215.8904,1659.5758,225.3538,1666.9544,231.69,1649.07" style="stroke:#181818;stroke-width:1.0;"/></g><!--reverse link IAModele to LLaMA3--><g id="link_IAModele_LLaMA3"><path codeLine="147" d="M324.1575,1665.2838 C344.4175,1707.3038 362.06,1743.88 379.33,1779.7 " fill="none" id="IAModele-backto-LLaMA3" style="stroke:#181818;stroke-width:1.0;stroke-dasharray:7.0,7.0;"/><polygon fill="none" points="316.34,1649.07,318.7529,1667.8896,329.5621,1662.6779,316.34,1649.07" style="stroke:#181818;stroke-width:1.0;"/></g><!--reverse link IAModele to IABotVideo--><g id="link_IAModele_IABotVideo"><path codeLine="148" d="M275.4289,1667.1256 C269.6889,1734.8056 265.86,1824.15 278,1916 C282.27,1948.3 291.67,1983.63 300.17,2011.33 " fill="none" id="IAModele-backto-IABotVideo" style="stroke:#181818;stroke-width:1.0;stroke-dasharray:7.0,7.0;"/><polygon fill="none" points="276.95,1649.19,269.4503,1666.6186,281.4074,1667.6327,276.95,1649.19" style="stroke:#181818;stroke-width:1.0;"/></g><!--link TestTechnique to CodeLlama--><g id="link_TestTechnique_CodeLlama"><path codeLine="150" d="M93.25,1631.71 C94.28,1672.53 95.72,1730.06 96.75,1770.86 " fill="none" id="TestTechnique-CodeLlama" style="stroke:#181818;stroke-width:1.0;"/><text fill="#000000" font-family="sans-serif" font-size="13" lengthAdjust="spacing" textLength="34" x="96" y="1693.4951">utilise</text></g><!--link TestPsychologique to LLaMA3--><g id="link_TestPsychologique_LLaMA3"><path codeLine="151" d="M458.78,1640.04 C444.43,1683.33 425.2,1741.4 412.47,1779.83 " fill="none" id="TestPsychologique-LLaMA3" style="stroke:#181818;stroke-width:1.0;"/><text fill="#000000" font-family="sans-serif" font-size="13" lengthAdjust="spacing" textLength="34" x="447" y="1693.4951">utilise</text></g><!--link EntretienBot to IABotVideo--><g id="link_EntretienBot_IABotVideo"><path codeLine="152" d="M537.33,1901.37 C531.17,1906.38 525.02,1911.29 519,1916 C476.83,1948.97 428.12,1984.02 389.1,2011.4 " fill="none" id="EntretienBot-IABotVideo" style="stroke:#181818;stroke-width:1.0;"/><text fill="#000000" font-family="sans-serif" font-size="13" lengthAdjust="spacing" textLength="34" x="477" y="1960.4951">utilise</text></g><!--SRC=[XLR9Rjim4BtpAmXVqWKnaFPcvE8wEHXmaDH9UYbweAcnmu8Y5IvfqgRVK_GxycCTYfH4UcakbZaQphoPDukEw9bW6yFg6cW5b4jcBLXwUx4Wv8ZEqj4x8OLb3honXAsiCuoxg4nlBHZwYr3w_jePeJPKLDa1QYPaTcxmoWzjSXMbwrp1G2amMa8udg5xMk7FN5bkHEE4La4kzKQeDs_3NmCROHsOUF9DqBuoUYqaeEWt8H7n4hZn8PO2DYXde372Gev6exrmvWR0NAxN1gBn3PXqjb70jR9UelCPKvL0ppw-whrsyjpfrs-Kwxe11ug3BUJms80HlVnskQ3y8VmBaBmim8IaWha1w_BpUGZ8eObFscrXN49uCfS03aHZ_8gBXadq6c6tRWxpwmGwoSuL5EJi2tC9znwpRFCI40_0_7aVSi7tbLz9mLbfabg4xrsY1hMoT4JYCq454Wh11XGOrBa1VgVGjaovso7B_ozs7GpESmbFrw9mYA2bx7040xdMhshXCkzvHDVjXIXXYicddn28h5DnR_Lb2EamTZwuA29mJqsP_Ld8RW8-18GEs0Rs1jFcDgz6U63I3pMNfpaeHGxkFMmr1afiS5os1ROeYcBn9CEpeRIsRL_P9twdmuHunVxbwZjWvapN5zEGtZW9AXnXnknh9nQLXZUv-rnz3mrzAdkzLy61YlFDG8spAdjH0ruBDpBKE2N0VEwi929w0qX6J6CPo1THWSw3I0PxZ36GvBR2fFFM_7cjmrE1b90ZJdON61Dsl0iOzy4E16hZsh1Oie0zoSEKk-QwQ5g4pfgWtKskkS9vjcP8FfrFYUXEUBZGeU-BtDUjA1CyWB6fk1EgXk4oH6GHXb322OQxhrigy0ZSnnKp30kqkf2iPj5NrW1zRHUT4FIx5Yy9c7t9xIuMx6BwSSTeKTJb_OpMtifyYXNOCXijHTgmQYDfMoMmOCWLjdOtEAFk55SoPW7wVR64ECuiQTV_wVFnyR1MCraN9Y73qXsTZ2Y-6hqRfUKoeToy_0NIRyXC8n_44serJZj7uhM3MWPU_cZXI2xjb4_6um-ZE1idxLB2pusAa5RG8Yvesv8NcO-NoWdJUncL_Jz9Nr102d6cljDf4zp5kl8O1kbB-VHvF1wgRKiUgsLBE90VuGx3Df3Jr-s0RpScL4o5U20ALCXgh5Vw1m00]--></g></svg>