<?xml version="1.0" encoding="us-ascii" standalone="no"?><svg xmlns="http://www.w3.org/2000/svg" xmlns:xlink="http://www.w3.org/1999/xlink" contentStyleType="text/css" height="708px" preserveAspectRatio="none" style="width:2383px;height:708px;background:#FFFFFF;" version="1.1" viewBox="0 0 2383 708" width="2383px" zoomAndPan="magnify"><defs/><g><!--cluster FRONTEND (React)--><g id="cluster_FRONTEND (React)"><path d="M8.5,6 L140.5,6 A3.75,3.75 0 0 1 143,8.5 L150,29.6094 L2077.5,29.6094 A2.5,2.5 0 0 1 2080,32.1094 L2080,103.5 A2.5,2.5 0 0 1 2077.5,106 L8.5,106 A2.5,2.5 0 0 1 6,103.5 L6,8.5 A2.5,2.5 0 0 1 8.5,6 " fill="none" style="stroke:#000000;stroke-width:1.5;"/><line style="stroke:#000000;stroke-width:1.5;" x1="6" x2="150" y1="29.6094" y2="29.6094"/><text fill="#000000" font-family="sans-serif" font-size="14" font-weight="bold" lengthAdjust="spacing" textLength="131" x="10" y="22.5332">FRONTEND (React)</text></g><!--cluster BACKEND (Node.js + Express)--><g id="cluster_BACKEND (Node.js + Express)"><path d="M543.5,130 L752.5,130 A3.75,3.75 0 0 1 755,132.5 L762,153.6094 L1521.5,153.6094 A2.5,2.5 0 0 1 1524,156.1094 L1524,574.5 A2.5,2.5 0 0 1 1521.5,577 L543.5,577 A2.5,2.5 0 0 1 541,574.5 L541,132.5 A2.5,2.5 0 0 1 543.5,130 " fill="none" style="stroke:#000000;stroke-width:1.5;"/><line style="stroke:#000000;stroke-width:1.5;" x1="541" x2="762" y1="153.6094" y2="153.6094"/><text fill="#000000" font-family="sans-serif" font-size="14" font-weight="bold" lengthAdjust="spacing" textLength="208" x="545" y="146.5332">BACKEND (Node.js + Express)</text></g><!--cluster IA Locale (Ollama)--><g id="cluster_IA Locale (Ollama)"><path d="M1550.5,369 L1675.5,369 A3.75,3.75 0 0 1 1678,371.5 L1685,392.6094 L2160.5,392.6094 A2.5,2.5 0 0 1 2163,395.1094 L2163,466.5 A2.5,2.5 0 0 1 2160.5,469 L1550.5,469 A2.5,2.5 0 0 1 1548,466.5 L1548,371.5 A2.5,2.5 0 0 1 1550.5,369 " fill="none" style="stroke:#000000;stroke-width:1.5;"/><line style="stroke:#000000;stroke-width:1.5;" x1="1548" x2="1685" y1="392.6094" y2="392.6094"/><text fill="#000000" font-family="sans-serif" font-size="14" font-weight="bold" lengthAdjust="spacing" textLength="124" x="1552" y="385.5332">IA Locale (Ollama)</text></g><!--cluster IA Bot Video--><g id="cluster_IA Bot Video"><path d="M857.5,601 L943.5,601 A3.75,3.75 0 0 1 946,603.5 L953,624.6094 L1803.5,624.6094 A2.5,2.5 0 0 1 1806,627.1094 L1806,698.5 A2.5,2.5 0 0 1 1803.5,701 L857.5,701 A2.5,2.5 0 0 1 855,698.5 L855,603.5 A2.5,2.5 0 0 1 857.5,601 " fill="none" style="stroke:#000000;stroke-width:1.5;"/><line style="stroke:#000000;stroke-width:1.5;" x1="855" x2="953" y1="624.6094" y2="624.6094"/><text fill="#000000" font-family="sans-serif" font-size="14" font-weight="bold" lengthAdjust="spacing" textLength="85" x="859" y="617.5332">IA Bot Video</text></g><!--cluster DB (MongoDB)--><g id="cluster_DB (MongoDB)"><path d="M1548,240 C1548,230 1957,230 1957,230 C1957,230 2366,230 2366,240 L2366,335 C2366,345 1957,345 1957,345 C1957,345 1548,345 1548,335 L1548,240 " fill="none" style="stroke:#181818;stroke-width:1.0;"/><path d="M1548,240 C1548,250 1957,250 1957,250 C1957,250 2366,250 2366,240 " fill="none" style="stroke:#181818;stroke-width:1.0;"/><text fill="#000000" font-family="sans-serif" font-size="14" font-weight="bold" lengthAdjust="spacing" textLength="103" x="1905.5" y="266.5332">DB (MongoDB)</text></g><!--entity A1--><g id="elem_A1"><rect fill="#F1F1F1" height="47.6094" rx="2.5" ry="2.5" style="stroke:#181818;stroke-width:0.5;" width="140" x="1729" y="42"/><rect fill="#F1F1F1" height="10" style="stroke:#181818;stroke-width:0.5;" width="15" x="1849" y="47"/><rect fill="#F1F1F1" height="2" style="stroke:#181818;stroke-width:0.5;" width="4" x="1847" y="49"/><rect fill="#F1F1F1" height="2" style="stroke:#181818;stroke-width:0.5;" width="4" x="1847" y="53"/><text fill="#000000" font-family="sans-serif" font-size="14" lengthAdjust="spacing" textLength="100" x="1744" y="76.5332">Login / Register</text></g><!--entity A0--><g id="elem_A0"><rect fill="#F1F1F1" height="47.6094" rx="2.5" ry="2.5" style="stroke:#181818;stroke-width:0.5;" width="153" x="1125.5" y="42"/><rect fill="#F1F1F1" height="10" style="stroke:#181818;stroke-width:0.5;" width="15" x="1258.5" y="47"/><rect fill="#F1F1F1" height="2" style="stroke:#181818;stroke-width:0.5;" width="4" x="1256.5" y="49"/><rect fill="#F1F1F1" height="2" style="stroke:#181818;stroke-width:0.5;" width="4" x="1256.5" y="53"/><text fill="#000000" font-family="sans-serif" font-size="14" lengthAdjust="spacing" textLength="113" x="1140.5" y="76.5332">Dashboard Admin</text></g><!--entity A2--><g id="elem_A2"><rect fill="#F1F1F1" height="47.6094" rx="2.5" ry="2.5" style="stroke:#181818;stroke-width:0.5;" width="137" x="953.5" y="42"/><rect fill="#F1F1F1" height="10" style="stroke:#181818;stroke-width:0.5;" width="15" x="1070.5" y="47"/><rect fill="#F1F1F1" height="2" style="stroke:#181818;stroke-width:0.5;" width="4" x="1068.5" y="49"/><rect fill="#F1F1F1" height="2" style="stroke:#181818;stroke-width:0.5;" width="4" x="1068.5" y="53"/><text fill="#000000" font-family="sans-serif" font-size="14" lengthAdjust="spacing" textLength="97" x="968.5" y="76.5332">Cr&#233;er une offre</text></g><!--entity A3--><g id="elem_A3"><rect fill="#F1F1F1" height="47.6094" rx="2.5" ry="2.5" style="stroke:#181818;stroke-width:0.5;" width="196" x="722" y="42"/><rect fill="#F1F1F1" height="10" style="stroke:#181818;stroke-width:0.5;" width="15" x="898" y="47"/><rect fill="#F1F1F1" height="2" style="stroke:#181818;stroke-width:0.5;" width="4" x="896" y="49"/><rect fill="#F1F1F1" height="2" style="stroke:#181818;stroke-width:0.5;" width="4" x="896" y="53"/><text fill="#000000" font-family="sans-serif" font-size="14" lengthAdjust="spacing" textLength="156" x="737" y="76.5332">G&#233;rer les offres publi&#233;es</text></g><!--entity A4--><g id="elem_A4"><rect fill="#F1F1F1" height="47.6094" rx="2.5" ry="2.5" style="stroke:#181818;stroke-width:0.5;" width="165" x="303.5" y="42"/><rect fill="#F1F1F1" height="10" style="stroke:#181818;stroke-width:0.5;" width="15" x="448.5" y="47"/><rect fill="#F1F1F1" height="2" style="stroke:#181818;stroke-width:0.5;" width="4" x="446.5" y="49"/><rect fill="#F1F1F1" height="2" style="stroke:#181818;stroke-width:0.5;" width="4" x="446.5" y="53"/><text fill="#000000" font-family="sans-serif" font-size="14" lengthAdjust="spacing" textLength="125" x="318.5" y="76.5332">Postuler &#224; une offre</text></g><!--entity A5--><g id="elem_A5"><rect fill="#F1F1F1" height="47.6094" rx="2.5" ry="2.5" style="stroke:#181818;stroke-width:0.5;" width="246" x="22" y="42"/><rect fill="#F1F1F1" height="10" style="stroke:#181818;stroke-width:0.5;" width="15" x="248" y="47"/><rect fill="#F1F1F1" height="2" style="stroke:#181818;stroke-width:0.5;" width="4" x="246" y="49"/><rect fill="#F1F1F1" height="2" style="stroke:#181818;stroke-width:0.5;" width="4" x="246" y="53"/><text fill="#000000" font-family="sans-serif" font-size="14" lengthAdjust="spacing" textLength="206" x="37" y="76.5332">Dashboard Recruteur / Candidat</text></g><!--entity A6--><g id="elem_A6"><rect fill="#F1F1F1" height="47.6094" rx="2.5" ry="2.5" style="stroke:#181818;stroke-width:0.5;" width="160" x="1904" y="42"/><rect fill="#F1F1F1" height="10" style="stroke:#181818;stroke-width:0.5;" width="15" x="2044" y="47"/><rect fill="#F1F1F1" height="2" style="stroke:#181818;stroke-width:0.5;" width="4" x="2042" y="49"/><rect fill="#F1F1F1" height="2" style="stroke:#181818;stroke-width:0.5;" width="4" x="2042" y="53"/><text fill="#000000" font-family="sans-serif" font-size="14" lengthAdjust="spacing" textLength="120" x="1919" y="76.5332">R&#233;sultats des tests</text></g><!--entity A7--><g id="elem_A7"><rect fill="#F1F1F1" height="47.6094" rx="2.5" ry="2.5" style="stroke:#181818;stroke-width:0.5;" width="183" x="503.5" y="42"/><rect fill="#F1F1F1" height="10" style="stroke:#181818;stroke-width:0.5;" width="15" x="666.5" y="47"/><rect fill="#F1F1F1" height="2" style="stroke:#181818;stroke-width:0.5;" width="4" x="664.5" y="49"/><rect fill="#F1F1F1" height="2" style="stroke:#181818;stroke-width:0.5;" width="4" x="664.5" y="53"/><text fill="#000000" font-family="sans-serif" font-size="14" lengthAdjust="spacing" textLength="143" x="518.5" y="76.5332">Configuration Syst&#232;me</text></g><!--entity A8--><g id="elem_A8"><rect fill="#F1F1F1" height="47.6094" rx="2.5" ry="2.5" style="stroke:#181818;stroke-width:0.5;" width="162" x="1532" y="42"/><rect fill="#F1F1F1" height="10" style="stroke:#181818;stroke-width:0.5;" width="15" x="1674" y="47"/><rect fill="#F1F1F1" height="2" style="stroke:#181818;stroke-width:0.5;" width="4" x="1672" y="49"/><rect fill="#F1F1F1" height="2" style="stroke:#181818;stroke-width:0.5;" width="4" x="1672" y="53"/><text fill="#000000" font-family="sans-serif" font-size="14" lengthAdjust="spacing" textLength="122" x="1547" y="76.5332">Gestion Utilisateurs</text></g><!--entity A9--><g id="elem_A9"><rect fill="#F1F1F1" height="47.6094" rx="2.5" ry="2.5" style="stroke:#181818;stroke-width:0.5;" width="183" x="1313.5" y="42"/><rect fill="#F1F1F1" height="10" style="stroke:#181818;stroke-width:0.5;" width="15" x="1476.5" y="47"/><rect fill="#F1F1F1" height="2" style="stroke:#181818;stroke-width:0.5;" width="4" x="1474.5" y="49"/><rect fill="#F1F1F1" height="2" style="stroke:#181818;stroke-width:0.5;" width="4" x="1474.5" y="53"/><text fill="#000000" font-family="sans-serif" font-size="14" lengthAdjust="spacing" textLength="143" x="1328.5" y="76.5332">Statistiques G&#233;n&#233;rales</text></g><!--entity B1--><g id="elem_B1"><rect fill="#F1F1F1" height="47.6094" rx="2.5" ry="2.5" style="stroke:#181818;stroke-width:0.5;" width="95" x="1412.5" y="166"/><rect fill="#F1F1F1" height="10" style="stroke:#181818;stroke-width:0.5;" width="15" x="1487.5" y="171"/><rect fill="#F1F1F1" height="2" style="stroke:#181818;stroke-width:0.5;" width="4" x="1485.5" y="173"/><rect fill="#F1F1F1" height="2" style="stroke:#181818;stroke-width:0.5;" width="4" x="1485.5" y="177"/><text fill="#000000" font-family="sans-serif" font-size="14" lengthAdjust="spacing" textLength="55" x="1427.5" y="200.5332">/api/auth</text></g><!--entity B0--><g id="elem_B0"><rect fill="#F1F1F1" height="47.6094" rx="2.5" ry="2.5" style="stroke:#181818;stroke-width:0.5;" width="105" x="1002.5" y="166"/><rect fill="#F1F1F1" height="10" style="stroke:#181818;stroke-width:0.5;" width="15" x="1087.5" y="171"/><rect fill="#F1F1F1" height="2" style="stroke:#181818;stroke-width:0.5;" width="4" x="1085.5" y="173"/><rect fill="#F1F1F1" height="2" style="stroke:#181818;stroke-width:0.5;" width="4" x="1085.5" y="177"/><text fill="#000000" font-family="sans-serif" font-size="14" lengthAdjust="spacing" textLength="65" x="1017.5" y="200.5332">/api/admin</text></g><!--entity B2--><g id="elem_B2"><rect fill="#F1F1F1" height="47.6094" rx="2.5" ry="2.5" style="stroke:#181818;stroke-width:0.5;" width="93" x="874.5" y="166"/><rect fill="#F1F1F1" height="10" style="stroke:#181818;stroke-width:0.5;" width="15" x="947.5" y="171"/><rect fill="#F1F1F1" height="2" style="stroke:#181818;stroke-width:0.5;" width="4" x="945.5" y="173"/><rect fill="#F1F1F1" height="2" style="stroke:#181818;stroke-width:0.5;" width="4" x="945.5" y="177"/><text fill="#000000" font-family="sans-serif" font-size="14" lengthAdjust="spacing" textLength="53" x="889.5" y="200.5332">/api/jobs</text></g><!--entity B3--><g id="elem_B3"><rect fill="#F1F1F1" height="47.6094" rx="2.5" ry="2.5" style="stroke:#181818;stroke-width:0.5;" width="142" x="557" y="166"/><rect fill="#F1F1F1" height="10" style="stroke:#181818;stroke-width:0.5;" width="15" x="679" y="171"/><rect fill="#F1F1F1" height="2" style="stroke:#181818;stroke-width:0.5;" width="4" x="677" y="173"/><rect fill="#F1F1F1" height="2" style="stroke:#181818;stroke-width:0.5;" width="4" x="677" y="177"/><text fill="#000000" font-family="sans-serif" font-size="14" lengthAdjust="spacing" textLength="102" x="572" y="200.5332">/api/applications</text></g><!--entity B9--><g id="elem_B9"><rect fill="#F1F1F1" height="47.6094" rx="2.5" ry="2.5" style="stroke:#181818;stroke-width:0.5;" width="102" x="1275" y="166"/><rect fill="#F1F1F1" height="10" style="stroke:#181818;stroke-width:0.5;" width="15" x="1357" y="171"/><rect fill="#F1F1F1" height="2" style="stroke:#181818;stroke-width:0.5;" width="4" x="1355" y="173"/><rect fill="#F1F1F1" height="2" style="stroke:#181818;stroke-width:0.5;" width="4" x="1355" y="177"/><text fill="#000000" font-family="sans-serif" font-size="14" lengthAdjust="spacing" textLength="62" x="1290" y="200.5332">/api/users</text></g><!--entity B10--><g id="elem_B10"><rect fill="#F1F1F1" height="47.6094" rx="2.5" ry="2.5" style="stroke:#181818;stroke-width:0.5;" width="97" x="1142.5" y="166"/><rect fill="#F1F1F1" height="10" style="stroke:#181818;stroke-width:0.5;" width="15" x="1219.5" y="171"/><rect fill="#F1F1F1" height="2" style="stroke:#181818;stroke-width:0.5;" width="4" x="1217.5" y="173"/><rect fill="#F1F1F1" height="2" style="stroke:#181818;stroke-width:0.5;" width="4" x="1217.5" y="177"/><text fill="#000000" font-family="sans-serif" font-size="14" lengthAdjust="spacing" textLength="57" x="1157.5" y="200.5332">/api/stats</text></g><!--entity B11--><g id="elem_B11"><rect fill="#F1F1F1" height="47.6094" rx="2.5" ry="2.5" style="stroke:#181818;stroke-width:0.5;" width="105" x="734.5" y="166"/><rect fill="#F1F1F1" height="10" style="stroke:#181818;stroke-width:0.5;" width="15" x="819.5" y="171"/><rect fill="#F1F1F1" height="2" style="stroke:#181818;stroke-width:0.5;" width="4" x="817.5" y="173"/><rect fill="#F1F1F1" height="2" style="stroke:#181818;stroke-width:0.5;" width="4" x="817.5" y="177"/><text fill="#000000" font-family="sans-serif" font-size="14" lengthAdjust="spacing" textLength="65" x="749.5" y="200.5332">/api/config</text></g><!--entity B4--><g id="elem_B4"><rect fill="#F1F1F1" height="47.6094" rx="2.5" ry="2.5" style="stroke:#181818;stroke-width:0.5;" width="196" x="1312" y="281"/><rect fill="#F1F1F1" height="10" style="stroke:#181818;stroke-width:0.5;" width="15" x="1488" y="286"/><rect fill="#F1F1F1" height="2" style="stroke:#181818;stroke-width:0.5;" width="4" x="1486" y="288"/><rect fill="#F1F1F1" height="2" style="stroke:#181818;stroke-width:0.5;" width="4" x="1486" y="292"/><text fill="#000000" font-family="sans-serif" font-size="14" lengthAdjust="spacing" textLength="156" x="1327" y="315.5332">generateTechnicalTest()</text></g><!--entity B5--><g id="elem_B5"><rect fill="#F1F1F1" height="47.6094" rx="2.5" ry="2.5" style="stroke:#181818;stroke-width:0.5;" width="221" x="870.5" y="281"/><rect fill="#F1F1F1" height="10" style="stroke:#181818;stroke-width:0.5;" width="15" x="1071.5" y="286"/><rect fill="#F1F1F1" height="2" style="stroke:#181818;stroke-width:0.5;" width="4" x="1069.5" y="288"/><rect fill="#F1F1F1" height="2" style="stroke:#181818;stroke-width:0.5;" width="4" x="1069.5" y="292"/><text fill="#000000" font-family="sans-serif" font-size="14" lengthAdjust="spacing" textLength="181" x="885.5" y="315.5332">generatePsychologicalTest()</text></g><!--entity B6--><g id="elem_B6"><rect fill="#F1F1F1" height="47.6094" rx="2.5" ry="2.5" style="stroke:#181818;stroke-width:0.5;" width="154" x="907" y="405"/><rect fill="#F1F1F1" height="10" style="stroke:#181818;stroke-width:0.5;" width="15" x="1041" y="410"/><rect fill="#F1F1F1" height="2" style="stroke:#181818;stroke-width:0.5;" width="4" x="1039" y="412"/><rect fill="#F1F1F1" height="2" style="stroke:#181818;stroke-width:0.5;" width="4" x="1039" y="416"/><text fill="#000000" font-family="sans-serif" font-size="14" lengthAdjust="spacing" textLength="114" x="922" y="439.5332">startBotInterview()</text></g><!--entity B7--><g id="elem_B7"><rect fill="#F1F1F1" height="47.6094" rx="2.5" ry="2.5" style="stroke:#181818;stroke-width:0.5;" width="158" x="1346" y="513"/><rect fill="#F1F1F1" height="10" style="stroke:#181818;stroke-width:0.5;" width="15" x="1484" y="518"/><rect fill="#F1F1F1" height="2" style="stroke:#181818;stroke-width:0.5;" width="4" x="1482" y="520"/><rect fill="#F1F1F1" height="2" style="stroke:#181818;stroke-width:0.5;" width="4" x="1482" y="524"/><text fill="#000000" font-family="sans-serif" font-size="14" lengthAdjust="spacing" textLength="118" x="1361" y="547.5332">analyzeVideoCall()</text></g><!--entity B8--><g id="elem_B8"><rect fill="#F1F1F1" height="47.6094" rx="2.5" ry="2.5" style="stroke:#181818;stroke-width:0.5;" width="150" x="1127" y="281"/><rect fill="#F1F1F1" height="10" style="stroke:#181818;stroke-width:0.5;" width="15" x="1257" y="286"/><rect fill="#F1F1F1" height="2" style="stroke:#181818;stroke-width:0.5;" width="4" x="1255" y="288"/><rect fill="#F1F1F1" height="2" style="stroke:#181818;stroke-width:0.5;" width="4" x="1255" y="292"/><text fill="#000000" font-family="sans-serif" font-size="14" lengthAdjust="spacing" textLength="110" x="1142" y="315.5332">analyzeResume()</text></g><!--entity D1--><g id="elem_D1"><rect fill="#F1F1F1" height="47.6094" rx="2.5" ry="2.5" style="stroke:#181818;stroke-width:0.5;" width="274" x="1873" y="405"/><rect fill="#F1F1F1" height="10" style="stroke:#181818;stroke-width:0.5;" width="15" x="2127" y="410"/><rect fill="#F1F1F1" height="2" style="stroke:#181818;stroke-width:0.5;" width="4" x="2125" y="412"/><rect fill="#F1F1F1" height="2" style="stroke:#181818;stroke-width:0.5;" width="4" x="2125" y="416"/><text fill="#000000" font-family="sans-serif" font-size="14" lengthAdjust="spacing" textLength="234" x="1888" y="439.5332">mod&#232;le CodeLlama - Test Technique</text></g><!--entity D2--><g id="elem_D2"><rect fill="#F1F1F1" height="47.6094" rx="2.5" ry="2.5" style="stroke:#181818;stroke-width:0.5;" width="274" x="1564" y="405"/><rect fill="#F1F1F1" height="10" style="stroke:#181818;stroke-width:0.5;" width="15" x="1818" y="410"/><rect fill="#F1F1F1" height="2" style="stroke:#181818;stroke-width:0.5;" width="4" x="1816" y="412"/><rect fill="#F1F1F1" height="2" style="stroke:#181818;stroke-width:0.5;" width="4" x="1816" y="416"/><text fill="#000000" font-family="sans-serif" font-size="14" lengthAdjust="spacing" textLength="234" x="1579" y="439.5332">mod&#232;le LLaMA3 - Analyse Psychique</text></g><!--entity E1--><g id="elem_E1"><rect fill="#F1F1F1" height="47.6094" rx="2.5" ry="2.5" style="stroke:#181818;stroke-width:0.5;" width="226" x="871" y="637"/><rect fill="#F1F1F1" height="10" style="stroke:#181818;stroke-width:0.5;" width="15" x="1077" y="642"/><rect fill="#F1F1F1" height="2" style="stroke:#181818;stroke-width:0.5;" width="4" x="1075" y="644"/><rect fill="#F1F1F1" height="2" style="stroke:#181818;stroke-width:0.5;" width="4" x="1075" y="648"/><text fill="#000000" font-family="sans-serif" font-size="14" lengthAdjust="spacing" textLength="186" x="886" y="671.5332">Bot vid&#233;o pose des questions</text></g><!--entity E2--><g id="elem_E2"><rect fill="#F1F1F1" height="47.6094" rx="2.5" ry="2.5" style="stroke:#181818;stroke-width:0.5;" width="184" x="1333" y="637"/><rect fill="#F1F1F1" height="10" style="stroke:#181818;stroke-width:0.5;" width="15" x="1497" y="642"/><rect fill="#F1F1F1" height="2" style="stroke:#181818;stroke-width:0.5;" width="4" x="1495" y="644"/><rect fill="#F1F1F1" height="2" style="stroke:#181818;stroke-width:0.5;" width="4" x="1495" y="648"/><text fill="#000000" font-family="sans-serif" font-size="14" lengthAdjust="spacing" textLength="144" x="1348" y="671.5332">D&#233;tection &#233;motionnelle</text></g><!--entity E3--><g id="elem_E3"><rect fill="#F1F1F1" height="47.6094" rx="2.5" ry="2.5" style="stroke:#181818;stroke-width:0.5;" width="165" x="1132.5" y="637"/><rect fill="#F1F1F1" height="10" style="stroke:#181818;stroke-width:0.5;" width="15" x="1277.5" y="642"/><rect fill="#F1F1F1" height="2" style="stroke:#181818;stroke-width:0.5;" width="4" x="1275.5" y="644"/><rect fill="#F1F1F1" height="2" style="stroke:#181818;stroke-width:0.5;" width="4" x="1275.5" y="648"/><text fill="#000000" font-family="sans-serif" font-size="14" lengthAdjust="spacing" textLength="125" x="1147.5" y="671.5332">Analyse linguistique</text></g><!--entity E4--><g id="elem_E4"><rect fill="#F1F1F1" height="47.6094" rx="2.5" ry="2.5" style="stroke:#181818;stroke-width:0.5;" width="237" x="1552.5" y="637"/><rect fill="#F1F1F1" height="10" style="stroke:#181818;stroke-width:0.5;" width="15" x="1769.5" y="642"/><rect fill="#F1F1F1" height="2" style="stroke:#181818;stroke-width:0.5;" width="4" x="1767.5" y="644"/><rect fill="#F1F1F1" height="2" style="stroke:#181818;stroke-width:0.5;" width="4" x="1767.5" y="648"/><text fill="#000000" font-family="sans-serif" font-size="14" lengthAdjust="spacing" textLength="197" x="1567.5" y="671.5332">D&#233;tection perturbations / d&#233;lais</text></g><!--entity C1--><g id="elem_C1"><rect fill="#F1F1F1" height="47.6094" rx="2.5" ry="2.5" style="stroke:#181818;stroke-width:0.5;" width="76" x="2274" y="281"/><rect fill="#F1F1F1" height="10" style="stroke:#181818;stroke-width:0.5;" width="15" x="2330" y="286"/><rect fill="#F1F1F1" height="2" style="stroke:#181818;stroke-width:0.5;" width="4" x="2328" y="288"/><rect fill="#F1F1F1" height="2" style="stroke:#181818;stroke-width:0.5;" width="4" x="2328" y="292"/><text fill="#000000" font-family="sans-serif" font-size="14" lengthAdjust="spacing" textLength="36" x="2289" y="315.5332">Users</text></g><!--entity C2--><g id="elem_C2"><rect fill="#F1F1F1" height="47.6094" rx="2.5" ry="2.5" style="stroke:#181818;stroke-width:0.5;" width="69" x="1996.5" y="281"/><rect fill="#F1F1F1" height="10" style="stroke:#181818;stroke-width:0.5;" width="15" x="2045.5" y="286"/><rect fill="#F1F1F1" height="2" style="stroke:#181818;stroke-width:0.5;" width="4" x="2043.5" y="288"/><rect fill="#F1F1F1" height="2" style="stroke:#181818;stroke-width:0.5;" width="4" x="2043.5" y="292"/><text fill="#000000" font-family="sans-serif" font-size="14" lengthAdjust="spacing" textLength="29" x="2011.5" y="315.5332">Jobs</text></g><!--entity C3--><g id="elem_C3"><rect fill="#F1F1F1" height="47.6094" rx="2.5" ry="2.5" style="stroke:#181818;stroke-width:0.5;" width="116" x="1739" y="281"/><rect fill="#F1F1F1" height="10" style="stroke:#181818;stroke-width:0.5;" width="15" x="1835" y="286"/><rect fill="#F1F1F1" height="2" style="stroke:#181818;stroke-width:0.5;" width="4" x="1833" y="288"/><rect fill="#F1F1F1" height="2" style="stroke:#181818;stroke-width:0.5;" width="4" x="1833" y="292"/><text fill="#000000" font-family="sans-serif" font-size="14" lengthAdjust="spacing" textLength="76" x="1754" y="315.5332">Applications</text></g><!--entity C4--><g id="elem_C4"><rect fill="#F1F1F1" height="47.6094" rx="2.5" ry="2.5" style="stroke:#181818;stroke-width:0.5;" width="138" x="2101" y="281"/><rect fill="#F1F1F1" height="10" style="stroke:#181818;stroke-width:0.5;" width="15" x="2219" y="286"/><rect fill="#F1F1F1" height="2" style="stroke:#181818;stroke-width:0.5;" width="4" x="2217" y="288"/><rect fill="#F1F1F1" height="2" style="stroke:#181818;stroke-width:0.5;" width="4" x="2217" y="292"/><text fill="#000000" font-family="sans-serif" font-size="14" lengthAdjust="spacing" textLength="98" x="2116" y="315.5332">R&#233;sultats Tests</text></g><!--entity C5--><g id="elem_C5"><rect fill="#F1F1F1" height="47.6094" rx="2.5" ry="2.5" style="stroke:#181818;stroke-width:0.5;" width="139" x="1564.5" y="281"/><rect fill="#F1F1F1" height="10" style="stroke:#181818;stroke-width:0.5;" width="15" x="1683.5" y="286"/><rect fill="#F1F1F1" height="2" style="stroke:#181818;stroke-width:0.5;" width="4" x="1681.5" y="288"/><rect fill="#F1F1F1" height="2" style="stroke:#181818;stroke-width:0.5;" width="4" x="1681.5" y="292"/><text fill="#000000" font-family="sans-serif" font-size="14" lengthAdjust="spacing" textLength="99" x="1579.5" y="315.5332">Config Syst&#232;me</text></g><!--entity C6--><g id="elem_C6"><rect fill="#F1F1F1" height="47.6094" rx="2.5" ry="2.5" style="stroke:#181818;stroke-width:0.5;" width="71" x="1890.5" y="281"/><rect fill="#F1F1F1" height="10" style="stroke:#181818;stroke-width:0.5;" width="15" x="1941.5" y="286"/><rect fill="#F1F1F1" height="2" style="stroke:#181818;stroke-width:0.5;" width="4" x="1939.5" y="288"/><rect fill="#F1F1F1" height="2" style="stroke:#181818;stroke-width:0.5;" width="4" x="1939.5" y="292"/><text fill="#000000" font-family="sans-serif" font-size="14" lengthAdjust="spacing" textLength="31" x="1905.5" y="315.5332">Logs</text></g><!--link A0 to B0--><g id="link_A0_B0"><path d="M1167.48,90.08 C1153.92,99.55 1138.41,110.89 1125,122 C1108.42,135.74 1095.1706,148.2553 1081.8106,161.5653 " fill="none" id="A0-to-B0" style="stroke:#181818;stroke-width:1.0;"/><polygon fill="#181818" points="1077.56,165.8,1086.759,162.2817,1081.1022,162.2711,1081.1128,156.6143,1077.56,165.8" style="stroke:#181818;stroke-width:1.0;"/></g><!--link B0 to C1--><g id="link_B0_C1"><path d="M1107.69,210.22 C1113.47,211.76 1119.32,213.07 1125,214 C1156.03,219.08 2229.31,207.1 2257,222 C2280.1,234.42 2292.857,255.7792 2301.297,275.3792 " fill="none" id="B0-to-C1" style="stroke:#181818;stroke-width:1.0;"/><polygon fill="#181818" points="2303.67,280.89,2303.7843,271.0418,2301.6925,276.2977,2296.4366,274.2058,2303.67,280.89" style="stroke:#181818;stroke-width:1.0;"/></g><!--link B0 to C2--><g id="link_B0_C2"><path d="M1107.7,210.21 C1113.47,211.75 1119.32,213.06 1125,214 C1148.41,217.86 1958.27,210.47 1979,222 C2001.54,234.53 2013.4984,255.8025 2021.2584,275.3725 " fill="none" id="B0-to-C2" style="stroke:#181818;stroke-width:1.0;"/><polygon fill="#181818" points="2023.47,280.95,2023.8709,271.1093,2021.627,276.3021,2016.4342,274.0581,2023.47,280.95" style="stroke:#181818;stroke-width:1.0;"/></g><!--link B0 to C3--><g id="link_B0_C3"><path d="M1107.7,210.19 C1113.48,211.73 1119.32,213.05 1125,214 C1157.66,219.45 1690.74,208.55 1721,222 C1748.14,234.07 1766.6442,256.0128 1779.8342,275.7328 " fill="none" id="B0-to-C3" style="stroke:#181818;stroke-width:1.0;"/><polygon fill="#181818" points="1783.17,280.72,1781.4911,271.0153,1780.3902,276.564,1774.8415,275.463,1783.17,280.72" style="stroke:#181818;stroke-width:1.0;"/></g><!--link B0 to C4--><g id="link_B0_C4"><path d="M1107.7,210.22 C1113.47,211.75 1119.32,213.07 1125,214 C1151.26,218.32 2058.31,212.08 2083,222 C2112.66,233.92 2134.4132,256.452 2149.9932,276.282 " fill="none" id="B0-to-C4" style="stroke:#181818;stroke-width:1.0;"/><polygon fill="#181818" points="2153.7,281,2151.2851,271.4518,2150.611,277.0683,2144.9944,276.3942,2153.7,281" style="stroke:#181818;stroke-width:1.0;"/></g><!--link B0 to C5--><g id="link_B0_C5"><path d="M1107.71,210.15 C1113.48,211.7 1119.33,213.03 1125,214 C1168.71,221.45 1482.05,207.62 1524,222 C1558.7,233.9 1587.1394,256.9868 1607.7294,276.8268 " fill="none" id="B0-to-C5" style="stroke:#181818;stroke-width:1.0;"/><polygon fill="#181818" points="1612.05,280.99,1608.3446,271.8648,1608.4495,277.5206,1602.7936,277.6256,1612.05,280.99" style="stroke:#181818;stroke-width:1.0;"/></g><!--link B0 to C6--><g id="link_B0_C6"><path d="M1107.7,210.2 C1113.48,211.74 1119.32,213.06 1125,214 C1145.5,217.39 1854.8,211.97 1873,222 C1895.71,234.52 1907.9445,255.8141 1915.9245,275.3841 " fill="none" id="B0-to-C6" style="stroke:#181818;stroke-width:1.0;"/><polygon fill="#181818" points="1918.19,280.94,1918.4957,271.0959,1916.3021,276.3101,1911.0879,274.1165,1918.19,280.94" style="stroke:#181818;stroke-width:1.0;"/></g><!--link A7 to B11--><g id="link_A7_B11"><path d="M656.17,90.12 C676,98.82 697.61,109.65 716,122 C734.57,134.48 748.72,147.5667 762.08,161.5167 " fill="none" id="A7-to-B11" style="stroke:#181818;stroke-width:1.0;"/><polygon fill="#181818" points="766.23,165.85,762.8938,156.5834,762.7717,162.2389,757.1161,162.1167,766.23,165.85" style="stroke:#181818;stroke-width:1.0;"/></g><!--link B11 to C5--><g id="link_B11_C5"><path d="M839.7,210.19 C845.48,211.73 851.32,213.06 857,214 C893.56,220.08 1488.9,210.12 1524,222 C1558.75,233.76 1587.1846,256.8714 1607.7646,276.7514 " fill="none" id="B11-to-C5" style="stroke:#181818;stroke-width:1.0;"/><polygon fill="#181818" points="1612.08,280.92,1608.386,271.7901,1608.4838,277.4462,1602.8278,277.544,1612.08,280.92" style="stroke:#181818;stroke-width:1.0;"/></g><!--link A8 to B9--><g id="link_A8_B9"><path d="M1573.36,90.02 C1555.76,99.12 1534.44,108.67 1514,114 C1488.35,120.69 1419.21,111.22 1395,122 C1373.8,131.44 1359.0702,145.7287 1346.5702,161.0687 " fill="none" id="A8-to-B9" style="stroke:#181818;stroke-width:1.0;"/><polygon fill="#181818" points="1342.78,165.72,1351.5661,161.2698,1345.9385,161.8439,1345.3644,156.2163,1342.78,165.72" style="stroke:#181818;stroke-width:1.0;"/></g><!--link B9 to C1--><g id="link_B9_C1"><path d="M1377.17,210 C1383.12,211.63 1389.15,213.02 1395,214 C1418.62,217.95 2235.92,210.63 2257,222 C2280.08,234.45 2292.847,255.7992 2301.287,275.3992 " fill="none" id="B9-to-C1" style="stroke:#181818;stroke-width:1.0;"/><polygon fill="#181818" points="2303.66,280.91,2303.7743,271.0618,2301.6825,276.3177,2296.4266,274.2258,2303.66,280.91" style="stroke:#181818;stroke-width:1.0;"/></g><!--link A9 to B10--><g id="link_A9_B10"><path d="M1357.24,90.11 C1338.48,98.52 1316.54,107.54 1296,114 C1279.12,119.31 1272.55,113.55 1257,122 C1237.34,132.68 1223.6018,146.4619 1211.5618,161.2919 " fill="none" id="A9-to-B10" style="stroke:#181818;stroke-width:1.0;"/><polygon fill="#181818" points="1207.78,165.95,1216.5581,161.484,1210.9315,162.0682,1210.3473,156.4416,1207.78,165.95" style="stroke:#181818;stroke-width:1.0;"/></g><!--link B10 to C1--><g id="link_B10_C1"><path d="M1239.54,209.91 C1245.35,211.57 1251.26,213.01 1257,214 C1284.37,218.75 2232.54,208.83 2257,222 C2280.09,234.44 2292.857,255.7892 2301.297,275.3892 " fill="none" id="B10-to-C1" style="stroke:#181818;stroke-width:1.0;"/><polygon fill="#181818" points="2303.67,280.9,2303.7843,271.0518,2301.6925,276.3077,2296.4366,274.2158,2303.67,280.9" style="stroke:#181818;stroke-width:1.0;"/></g><!--link B10 to C2--><g id="link_B10_C2"><path d="M1239.55,209.89 C1245.36,211.56 1251.26,213 1257,214 C1276.76,217.46 1961.48,212.24 1979,222 C2001.53,234.55 2013.4884,255.8125 2021.2484,275.3825 " fill="none" id="B10-to-C2" style="stroke:#181818;stroke-width:1.0;"/><polygon fill="#181818" points="2023.46,280.96,2023.8609,271.1193,2021.617,276.3121,2016.4242,274.0681,2023.46,280.96" style="stroke:#181818;stroke-width:1.0;"/></g><!--link B10 to C3--><g id="link_B10_C3"><path d="M1239.55,209.85 C1245.36,211.53 1251.27,212.98 1257,214 C1282.38,218.52 1697.46,211.48 1721,222 C1748.11,234.12 1766.6201,256.0555 1779.8201,275.7555 " fill="none" id="B10-to-C3" style="stroke:#181818;stroke-width:1.0;"/><polygon fill="#181818" points="1783.16,280.74,1781.4732,271.0367,1780.3768,276.5862,1774.8272,275.4898,1783.16,280.74" style="stroke:#181818;stroke-width:1.0;"/></g><!--link B10 to C4--><g id="link_B10_C4"><path d="M1239.55,209.9 C1245.36,211.57 1251.26,213 1257,214 C1302.21,221.88 2040.43,204.86 2083,222 C2112.46,233.86 2134.0641,256.1191 2149.6741,275.9091 " fill="none" id="B10-to-C4" style="stroke:#181818;stroke-width:1.0;"/><polygon fill="#181818" points="2153.39,280.62,2150.9568,271.0764,2150.2935,276.6943,2144.6756,276.0309,2153.39,280.62" style="stroke:#181818;stroke-width:1.0;"/></g><!--link A1 to B1--><g id="link_A1_B1"><path d="M1760.43,90.05 C1745.61,98.31 1728.34,107.24 1712,114 C1643.04,142.53 1565.1959,163.7753 1513.7459,176.4453 " fill="none" id="A1-to-B1" style="stroke:#181818;stroke-width:1.0;"/><polygon fill="#181818" points="1507.92,177.88,1517.6154,179.6119,1512.775,176.6844,1515.7025,171.844,1507.92,177.88" style="stroke:#181818;stroke-width:1.0;"/></g><!--link B1 to C1--><g id="link_B1_C1"><path d="M1507.57,191.66 C1674.35,194.14 2224.21,203.68 2257,222 C2279.75,234.71 2292.4589,255.7358 2300.9989,275.1958 " fill="none" id="B1-to-C1" style="stroke:#181818;stroke-width:1.0;"/><polygon fill="#181818" points="2303.41,280.69,2303.4561,270.8413,2301.4007,276.1115,2296.1305,274.0561,2303.41,280.69" style="stroke:#181818;stroke-width:1.0;"/></g><!--link A2 to B2--><g id="link_A2_B2"><path d="M1002.76,90.23 C984.79,111.94 961.9364,139.5485 943.9864,161.2285 " fill="none" id="A2-to-B2" style="stroke:#181818;stroke-width:1.0;"/><polygon fill="#181818" points="940.16,165.85,948.9806,161.4686,943.3487,161.9987,942.8186,156.3668,940.16,165.85" style="stroke:#181818;stroke-width:1.0;"/></g><!--link B2 to C2--><g id="link_B2_C2"><path d="M967.69,209.8 C973.44,211.51 979.3,212.98 985,214 C1012.18,218.85 1954.86,208.6 1979,222 C2001.55,234.52 2013.5118,255.7811 2021.2618,275.3611 " fill="none" id="B2-to-C2" style="stroke:#181818;stroke-width:1.0;"/><polygon fill="#181818" points="2023.47,280.94,2023.877,271.0996,2021.6298,276.2909,2016.4385,274.0438,2023.47,280.94" style="stroke:#181818;stroke-width:1.0;"/></g><!--link A3 to B2--><g id="link_A3_B2"><path d="M839.24,90.23 C857.21,111.94 880.0636,139.5485 898.0136,161.2285 " fill="none" id="A3-to-B2" style="stroke:#181818;stroke-width:1.0;"/><polygon fill="#181818" points="901.84,165.85,899.1814,156.3668,898.6513,161.9987,893.0194,161.4686,901.84,165.85" style="stroke:#181818;stroke-width:1.0;"/></g><!--link A4 to B3--><g id="link_A4_B3"><path d="M431.8,90.09 C474.83,111.78 533.5124,141.3688 576.6124,163.0988 " fill="none" id="A4-to-B3" style="stroke:#181818;stroke-width:1.0;"/><polygon fill="#181818" points="581.97,165.8,575.7344,158.1765,577.5053,163.549,572.1328,165.32,581.97,165.8" style="stroke:#181818;stroke-width:1.0;"/></g><!--link B3 to C3--><g id="link_B3_C3"><path d="M699.11,211.01 C705.12,212.21 711.15,213.23 717,214 C744.65,217.63 1695.49,210.74 1721,222 C1748.17,233.99 1766.6783,255.95 1779.8583,275.69 " fill="none" id="B3-to-C3" style="stroke:#181818;stroke-width:1.0;"/><polygon fill="#181818" points="1783.19,280.68,1781.5191,270.9739,1780.4136,276.5217,1774.8658,275.4162,1783.19,280.68" style="stroke:#181818;stroke-width:1.0;"/></g><!--link A5 to B3--><g id="link_A5_B3"><path d="M209.49,90.09 C233.36,98.22 260.75,107.04 286,114 C378.59,139.51 481.2809,160.9518 550.8309,174.5118 " fill="none" id="A5-to-B3" style="stroke:#181818;stroke-width:1.0;"/><polygon fill="#181818" points="556.72,175.66,548.6518,170.0116,551.8124,174.7032,547.1209,177.8638,556.72,175.66" style="stroke:#181818;stroke-width:1.0;"/></g><!--link A6 to C4--><g id="link_A6_C4"><path d="M2002.17,90.16 C2037.73,135.46 2112.436,230.6498 2148.046,276.0298 " fill="none" id="A6-to-C4" style="stroke:#181818;stroke-width:1.0;"/><polygon fill="#181818" points="2151.75,280.75,2149.3408,271.2003,2148.6633,276.8165,2143.0472,276.139,2151.75,280.75" style="stroke:#181818;stroke-width:1.0;"/></g><!--link B2 to B4--><g id="link_B2_B4"><path d="M967.71,209.7 C973.46,211.43 979.31,212.93 985,214 C1018.76,220.33 1261.41,211.18 1294,222 C1329.81,233.89 1359.7945,256.8415 1381.7145,276.6115 " fill="none" id="B2-to-B4" style="stroke:#181818;stroke-width:1.0;"/><polygon fill="#181818" points="1386.17,280.63,1382.1657,271.6319,1382.4571,277.2812,1376.8077,277.5726,1386.17,280.63" style="stroke:#181818;stroke-width:1.0;"/></g><!--link B4 to D1--><g id="link_B4_D1"><path d="M1465.05,329.02 C1489.93,338.3 1519.97,347.98 1548,353 C1615.4,365.06 1789.16,346.18 1856,361 C1896.14,369.9 1933.4524,386.5601 1963.6624,402.2101 " fill="none" id="B4-to-D1" style="stroke:#181818;stroke-width:1.0;"/><polygon fill="#181818" points="1968.99,404.97,1962.8386,397.2784,1964.5504,402.6701,1959.1587,404.3819,1968.99,404.97" style="stroke:#181818;stroke-width:1.0;"/></g><!--link B3 to B8--><g id="link_B3_B8"><path d="M699.12,210.93 C705.13,212.14 711.15,213.2 717,214 C760.16,219.93 1068.41,206.18 1109,222 C1139.69,233.96 1163.0049,256.3548 1179.9449,276.1148 " fill="none" id="B3-to-B8" style="stroke:#181818;stroke-width:1.0;"/><polygon fill="#181818" points="1183.85,280.67,1181.0291,271.2338,1180.5957,276.874,1174.9555,276.4406,1183.85,280.67" style="stroke:#181818;stroke-width:1.0;"/></g><!--link B8 to D1--><g id="link_B8_D1"><path d="M1237.64,329.04 C1254.1,338.39 1274.33,348.12 1294,353 C1354.61,368.04 1794.95,347.84 1856,361 C1896.33,369.69 1933.8096,386.4762 1964.0196,402.2262 " fill="none" id="B8-to-D1" style="stroke:#181818;stroke-width:1.0;"/><polygon fill="#181818" points="1969.34,405,1963.2086,397.2924,1964.9064,402.6885,1959.5103,404.3862,1969.34,405" style="stroke:#181818;stroke-width:1.0;"/></g><!--link B3 to B5--><g id="link_B3_B5"><path d="M699.01,213.73 C760.01,233.26 841.8557,259.4607 903.1757,279.0907 " fill="none" id="B3-to-B5" style="stroke:#181818;stroke-width:1.0;"/><polygon fill="#181818" points="908.89,280.92,901.538,274.3665,904.1281,279.3956,899.099,281.9856,908.89,280.92" style="stroke:#181818;stroke-width:1.0;"/></g><!--link B5 to D2--><g id="link_B5_D2"><path d="M1031.89,329.12 C1054.94,338.41 1082.83,348.09 1109,353 C1199.66,370.02 1433.43,343.53 1524,361 C1569.49,369.78 1613.0871,386.7509 1648.0071,402.4409 " fill="none" id="B5-to-D2" style="stroke:#181818;stroke-width:1.0;"/><polygon fill="#181818" points="1653.48,404.9,1646.91,397.5628,1648.9192,402.8508,1643.6312,404.86,1653.48,404.9" style="stroke:#181818;stroke-width:1.0;"/></g><!--link B5 to B6--><g id="link_B5_B6"><path d="M981.57,329.23 C982.11,350.94 982.7534,377.1718 983.2834,398.8518 " fill="none" id="B5-to-B6" style="stroke:#181818;stroke-width:1.0;"/><polygon fill="#181818" points="983.43,404.85,987.2089,395.7549,983.3078,399.8515,979.2112,395.9504,983.43,404.85" style="stroke:#181818;stroke-width:1.0;"/></g><!--link B6 to E1--><g id="link_B6_E1"><path d="M984,453.32 C984,497.52 984,586.98 984,630.96 " fill="none" id="B6-to-E1" style="stroke:#181818;stroke-width:1.0;"/><polygon fill="#181818" points="984,636.96,988,627.96,984,631.96,980,627.96,984,636.96" style="stroke:#181818;stroke-width:1.0;"/></g><!--link B6 to B7--><g id="link_B6_B7"><path d="M1061.07,448.52 C1140.94,467.72 1259.3363,496.1773 1339.9763,515.5673 " fill="none" id="B6-to-B7" style="stroke:#181818;stroke-width:1.0;"/><polygon fill="#181818" points="1345.81,516.97,1337.9946,510.9768,1340.9486,515.8011,1336.1243,518.7551,1345.81,516.97" style="stroke:#181818;stroke-width:1.0;"/></g><!--link B7 to E2--><g id="link_B7_E2"><path d="M1425,561.23 C1425,582.94 1425,609.17 1425,630.85 " fill="none" id="B7-to-E2" style="stroke:#181818;stroke-width:1.0;"/><polygon fill="#181818" points="1425,636.85,1429,627.85,1425,631.85,1421,627.85,1425,636.85" style="stroke:#181818;stroke-width:1.0;"/></g><!--link B7 to E3--><g id="link_B7_E3"><path d="M1376.32,561.02 C1357.24,570.45 1335.33,581.76 1316,593 C1292.53,606.64 1272.013,620.149 1252.523,633.559 " fill="none" id="B7-to-E3" style="stroke:#181818;stroke-width:1.0;"/><polygon fill="#181818" points="1247.58,636.96,1257.2618,635.1538,1251.6992,634.1258,1252.7272,628.5632,1247.58,636.96" style="stroke:#181818;stroke-width:1.0;"/></g><!--link B7 to E4--><g id="link_B7_E4"><path d="M1471.56,561.09 C1515.3,582.78 1575.0249,612.4039 1618.8349,634.1339 " fill="none" id="B7-to-E4" style="stroke:#181818;stroke-width:1.0;"/><polygon fill="#181818" points="1624.21,636.8,1617.9247,629.2174,1619.7307,634.5783,1614.3699,636.3843,1624.21,636.8" style="stroke:#181818;stroke-width:1.0;"/></g><!--link B7 to C4--><g id="link_B7_C4"><path d="M1504.32,535.47 C1685.6,533.45 2118.06,523.72 2163,477 C2201.11,437.38 2189.4127,371.4964 2179.1027,334.7964 " fill="none" id="B7-to-C4" style="stroke:#181818;stroke-width:1.0;"/><polygon fill="#181818" points="2177.48,329.02,2176.0632,338.7664,2178.8323,333.8337,2183.765,336.6028,2177.48,329.02" style="stroke:#181818;stroke-width:1.0;"/></g><!--link B3 to C4--><g id="link_B3_C4"><path d="M699.1,211.02 C705.12,212.22 711.14,213.24 717,214 C754.63,218.9 2047.77,207.9 2083,222 C2112.67,233.88 2134.4258,256.4199 2149.9958,276.2599 " fill="none" id="B3-to-C4" style="stroke:#181818;stroke-width:1.0;"/><polygon fill="#181818" points="2153.7,280.98,2151.2904,271.4305,2150.6132,277.0466,2144.997,276.3694,2153.7,280.98" style="stroke:#181818;stroke-width:1.0;"/></g><!--SRC=[NLNBRjim4BpxAuXSug184_cHn9S2akmMQPq77AUNeWTQsjXCAL8LgJHfqN_fCVuE_LYNBydn8S1cPxIpNCxIXsJAwBgYHG4a1vB9efIA2grEycPRSicW0A79_TMSq2V8I9mNJFHw9Sr-q3MGWu-Bc-lbx7fA-WkWcJuw87zwX7oRopKJv8GiOCsKXkexeOh4aO6cL6rMabQvg-MGKuEaLRE5YjG2Y7nugC110mDzQhOLGXoKWnGfwnLdo5UEDJIiMwbqpP7N_DklCdehlO2igZNK5VQOKf6pd6f771lYejcgcckg5Gv54GrAUvqpswWK3snTLrGpASZTYzBDQ-65pcsx-861xZNZJ54ZvB-_CF0TLiQni9yr5iUZ2JmTvU4eazxVdG4dSVh5plTQvl3-KP5tPFPSuWHKcFK9BTa9hVN6Vfv4NQwTRtBQ9X_bokaaWuvObfnbzZGU6xPOhS3tdapQf3AZyN9TwSoEnQTj6siGW5E29MGRWGfyYOFf7pdAQ9TngrwoZUHecpsMlG_KgtGYzQL0Bpqn-1LGUnrKKFxo6xwo76HAEG_W-Gwu05KN492BDoE-ZCbSeYoG_WtdjA1XieNCcrTCfpZwkG78CJ6z4NSUl3vRRXhjakTpUXKFaHaRPGN47gqZ3_QryLp4zkvLpVzF3DTF4jn5i0uqJkckP-OMgTbgoApFccqXJI20SoSpixSRMk1Ch6llE0SFzogKKEcwMZaFu5AWFAVCourCoxWXT4MnsC4q8VqhATPoceH9tRSkIMrlduFBKjV7li7IuTwQBTiLIqVTYhtThNJidnPFF3Dj7UBjuBcVRT_kTOfFoV7n1sFwn4NOKuW6RJHier4RZTleh1UVkohePFmBU7pXifDUCWcruubdec3KAKQTPDHfHgteszRHuYB7fwaNHxuQSbk5WSjXgK4eQZpcSl78HLXz67JYSSZ5Ppk2rhqwk3TKmrLCN0sqig-1Ev9SX5puiWnMRbauCQU4llOHBcNYDD6dFi9TJDmyqPWX6hRHA4Ikopb3ww4fC_yorvNxPUBDgswbqz5_]--></g></svg>