<?xml version="1.0" encoding="us-ascii" standalone="no"?><svg xmlns="http://www.w3.org/2000/svg" xmlns:xlink="http://www.w3.org/1999/xlink" contentStyleType="text/css" height="342px" preserveAspectRatio="none" style="width:274px;height:342px;background:#FFFFFF;" version="1.1" viewBox="0 0 274 342" width="274px" zoomAndPan="magnify"><defs/><g><ellipse cx="137" cy="20" fill="#222222" rx="10" ry="10" style="stroke:#222222;stroke-width:1.0;"/><rect fill="#F1F1F1" height="35.0938" rx="12.5" ry="12.5" style="stroke:#181818;stroke-width:0.5;" width="159" x="57.5" y="50"/><text fill="#000000" font-family="sans-serif" font-size="12" lengthAdjust="spacing" textLength="139" x="67.5" y="72.457">Se connecter au syst&#232;me</text><rect fill="none" height="194.8906" style="stroke:#000000;stroke-width:1.5;" width="252" x="11" y="95.0938"/><path d="M150,95.0938 L150,105.7031 L140,115.7031 L11,115.7031 " fill="none" style="stroke:#000000;stroke-width:1.5;"/><text fill="#000000" font-family="sans-serif" font-size="14" lengthAdjust="spacing" textLength="129" x="14" y="110.627">Configuration initiale</text><rect fill="#F1F1F1" height="35.0938" rx="12.5" ry="12.5" style="stroke:#181818;stroke-width:0.5;" width="232" x="21" y="132.7031"/><text fill="#000000" font-family="sans-serif" font-size="12" lengthAdjust="spacing" textLength="212" x="31" y="155.1602">Configurer les param&#232;tres du syst&#232;me</text><rect fill="#F1F1F1" height="35.0938" rx="12.5" ry="12.5" style="stroke:#181818;stroke-width:0.5;" width="172" x="51" y="187.7969"/><text fill="#000000" font-family="sans-serif" font-size="12" lengthAdjust="spacing" textLength="152" x="61" y="210.2539">Configurer les mod&#232;les d'IA</text><rect fill="#F1F1F1" height="35.0938" rx="12.5" ry="12.5" style="stroke:#181818;stroke-width:0.5;" width="181" x="46.5" y="242.8906"/><text fill="#000000" font-family="sans-serif" font-size="12" lengthAdjust="spacing" textLength="161" x="56.5" y="265.3477">D&#233;finir les seuils d'&#233;valuation</text><ellipse cx="137" cy="320.9844" fill="none" rx="11" ry="11" style="stroke:#222222;stroke-width:1.0;"/><ellipse cx="137" cy="320.9844" fill="#222222" rx="6" ry="6" style="stroke:#222222;stroke-width:1.0;"/><line style="stroke:#181818;stroke-width:1.0;" x1="137" x2="137" y1="30" y2="50"/><polygon fill="#181818" points="133,40,137,50,141,40,137,44" style="stroke:#181818;stroke-width:1.0;"/><line style="stroke:#181818;stroke-width:1.0;" x1="137" x2="137" y1="167.7969" y2="187.7969"/><polygon fill="#181818" points="133,177.7969,137,187.7969,141,177.7969,137,181.7969" style="stroke:#181818;stroke-width:1.0;"/><line style="stroke:#181818;stroke-width:1.0;" x1="137" x2="137" y1="222.8906" y2="242.8906"/><polygon fill="#181818" points="133,232.8906,137,242.8906,141,232.8906,137,236.8906" style="stroke:#181818;stroke-width:1.0;"/><line style="stroke:#181818;stroke-width:1.0;" x1="137" x2="137" y1="85.0938" y2="132.7031"/><polygon fill="#181818" points="133,122.7031,137,132.7031,141,122.7031,137,126.7031" style="stroke:#181818;stroke-width:1.0;"/><line style="stroke:#181818;stroke-width:1.0;" x1="137" x2="137" y1="277.9844" y2="309.9844"/><polygon fill="#181818" points="133,299.9844,137,309.9844,141,299.9844,137,303.9844" style="stroke:#181818;stroke-width:1.0;"/><!--SRC=[POzB3i8m34JtEONL3NTeLnLiM7C2gt5Hf7ogn452bFkavyZ5S0D8IEp6dkSPUHsrCtvLYJ6owYy4K_2U9gO8c27T4zVYQ53h1ro4Cso2X-uO_6okEM8RZPSrMkhWeG3whoavbXB86RfQE8hMlxd_g0kwbbtemtbimAbkiyI_xKJPsDsismrjRkM3Uie7ONa1]--></g></svg>